<?xml version="1.0"?>
<svg width="800" height="800" xmlns="http://www.w3.org/2000/svg" xmlns:svg="http://www.w3.org/2000/svg" enable-background="new 0 0 800 800" version="1.1" xml:space="preserve">
 <g class="layer">
  <title>Layer 1</title>
  <g id="DESIGNED_BY_FREEPIK">
   <g id="svg_2">
    <g id="svg_3">
     <path d="m288.49,776.35l0,-0.26c-0.35,0.4 -0.69,0.73 -1.03,0.97c-0.34,0.26 -0.7,0.45 -1.1,0.57c-0.4,0.14 -0.83,0.2 -1.3,0.2c-0.62,0 -1.19,-0.13 -1.72,-0.39c-0.53,-0.27 -0.99,-0.64 -1.37,-1.13c-0.39,-0.49 -0.68,-1.06 -0.88,-1.72c-0.2,-0.66 -0.3,-1.37 -0.3,-2.14c0,-1.62 0.39,-2.88 1.19,-3.79c0.79,-0.9 1.83,-1.35 3.12,-1.35c0.75,0 1.38,0.12 1.89,0.38c0.51,0.26 1.01,0.65 1.5,1.18l0,-3.82c0,-0.54 0.11,-0.94 0.32,-1.21c0.21,-0.27 0.51,-0.41 0.91,-0.41s0.69,0.13 0.9,0.38c0.21,0.25 0.32,0.62 0.32,1.1l0,11.44c0,0.49 -0.11,0.86 -0.34,1.11c-0.23,0.25 -0.52,0.37 -0.89,0.37c-0.35,0 -0.64,-0.13 -0.87,-0.38c-0.23,-0.26 -0.35,-0.63 -0.35,-1.1zm-5.1,-3.81c0,0.7 0.11,1.3 0.33,1.8c0.22,0.49 0.52,0.86 0.9,1.11c0.38,0.25 0.79,0.38 1.24,0.38c0.46,0 0.87,-0.12 1.25,-0.36c0.38,-0.23 0.68,-0.6 0.9,-1.09c0.23,-0.49 0.34,-1.11 0.34,-1.84c0,-0.69 -0.11,-1.28 -0.34,-1.78c-0.22,-0.5 -0.53,-0.88 -0.91,-1.14c-0.38,-0.26 -0.8,-0.39 -1.26,-0.39c-0.47,0 -0.9,0.13 -1.27,0.4c-0.38,0.27 -0.67,0.65 -0.87,1.16c-0.21,0.5 -0.31,1.09 -0.31,1.75z" fill="#FFFFFF" id="svg_4"/>
     <path d="m299.93,773.2l-5.07,0c0,0.58 0.12,1.1 0.35,1.55c0.23,0.45 0.54,0.79 0.92,1.02c0.39,0.23 0.81,0.34 1.27,0.34c0.31,0 0.6,-0.03 0.85,-0.11c0.26,-0.07 0.51,-0.18 0.75,-0.34c0.24,-0.15 0.46,-0.32 0.66,-0.5c0.2,-0.18 0.47,-0.42 0.79,-0.72c0.13,-0.11 0.32,-0.17 0.57,-0.17c0.27,0 0.48,0.07 0.64,0.22c0.17,0.15 0.25,0.35 0.25,0.62c0,0.23 -0.09,0.5 -0.27,0.82c-0.19,0.31 -0.46,0.61 -0.83,0.9c-0.37,0.29 -0.84,0.53 -1.4,0.71c-0.56,0.2 -1.2,0.29 -1.93,0.29c-1.67,0 -2.96,-0.48 -3.89,-1.42c-0.92,-0.95 -1.38,-2.24 -1.38,-3.87c0,-0.77 0.11,-1.48 0.34,-2.13c0.23,-0.66 0.56,-1.22 0.99,-1.69c0.44,-0.47 0.98,-0.83 1.62,-1.08c0.64,-0.25 1.35,-0.37 2.13,-0.37c1.01,0 1.88,0.21 2.6,0.64c0.73,0.43 1.27,0.98 1.63,1.66c0.36,0.67 0.54,1.37 0.54,2.07c0,0.65 -0.18,1.07 -0.56,1.27c-0.37,0.19 -0.9,0.29 -1.57,0.29zm-5.07,-1.47l4.7,0c-0.07,-0.89 -0.31,-1.56 -0.72,-1.99c-0.42,-0.45 -0.96,-0.66 -1.64,-0.66c-0.65,0 -1.18,0.22 -1.59,0.66c-0.42,0.45 -0.67,1.11 -0.75,1.99z" fill="#FFFFFF" id="svg_5"/>
     <path d="m311.74,774.44c0,0.72 -0.17,1.33 -0.52,1.84c-0.35,0.51 -0.86,0.9 -1.54,1.16c-0.69,0.26 -1.51,0.39 -2.49,0.39c-0.93,0 -1.73,-0.14 -2.39,-0.43c-0.67,-0.28 -1.16,-0.64 -1.47,-1.06c-0.32,-0.43 -0.48,-0.86 -0.48,-1.29c0,-0.29 0.1,-0.53 0.31,-0.73c0.2,-0.2 0.46,-0.31 0.77,-0.31c0.27,0 0.47,0.07 0.62,0.2c0.15,0.14 0.29,0.32 0.42,0.56c0.27,0.47 0.58,0.81 0.95,1.04c0.37,0.23 0.88,0.34 1.52,0.34c0.52,0 0.94,-0.12 1.28,-0.35c0.33,-0.23 0.49,-0.49 0.49,-0.79c0,-0.46 -0.17,-0.79 -0.51,-1c-0.35,-0.2 -0.92,-0.4 -1.71,-0.6c-0.89,-0.22 -1.62,-0.45 -2.18,-0.69c-0.56,-0.25 -1,-0.57 -1.34,-0.97c-0.34,-0.39 -0.51,-0.89 -0.51,-1.47c0,-0.52 0.16,-1.01 0.47,-1.47c0.31,-0.46 0.77,-0.83 1.37,-1.11c0.61,-0.27 1.34,-0.41 2.19,-0.41c0.67,0 1.28,0.07 1.81,0.21c0.54,0.14 0.98,0.33 1.34,0.56c0.36,0.23 0.63,0.49 0.82,0.78c0.19,0.28 0.28,0.56 0.28,0.83c0,0.3 -0.1,0.54 -0.3,0.74c-0.2,0.18 -0.48,0.28 -0.85,0.28c-0.27,0 -0.49,-0.08 -0.68,-0.23c-0.19,-0.15 -0.4,-0.38 -0.64,-0.68c-0.2,-0.26 -0.43,-0.46 -0.69,-0.61c-0.27,-0.15 -0.63,-0.23 -1.09,-0.23c-0.47,0 -0.86,0.1 -1.17,0.3c-0.31,0.2 -0.46,0.45 -0.46,0.74c0,0.28 0.11,0.5 0.34,0.67c0.23,0.18 0.53,0.32 0.92,0.44c0.39,0.11 0.92,0.25 1.6,0.41c0.8,0.2 1.46,0.44 1.97,0.71c0.51,0.27 0.89,0.59 1.16,0.96c0.26,0.37 0.39,0.8 0.39,1.27z" fill="#FFFFFF" id="svg_6"/>
     <path d="m314.39,766.08c-0.36,0 -0.67,-0.11 -0.92,-0.33c-0.26,-0.22 -0.39,-0.53 -0.39,-0.94c0,-0.37 0.13,-0.67 0.39,-0.91c0.27,-0.24 0.57,-0.35 0.92,-0.35c0.34,0 0.63,0.1 0.89,0.32c0.26,0.22 0.39,0.53 0.39,0.94c0,0.4 -0.12,0.71 -0.38,0.94c-0.25,0.22 -0.55,0.33 -0.9,0.33zm1.28,2.68l0,7.49c0,0.52 -0.12,0.92 -0.37,1.18c-0.24,0.27 -0.56,0.4 -0.94,0.4c-0.38,0 -0.69,-0.13 -0.92,-0.41c-0.24,-0.27 -0.36,-0.66 -0.36,-1.17l0,-7.41c0,-0.52 0.12,-0.9 0.36,-1.16c0.23,-0.26 0.54,-0.39 0.92,-0.39c0.38,0 0.7,0.13 0.94,0.39c0.25,0.26 0.37,0.62 0.37,1.08z" fill="#FFFFFF" id="svg_7"/>
     <path d="m327.03,769.19l0,7.53c0,0.86 -0.09,1.6 -0.28,2.22c-0.18,0.62 -0.47,1.14 -0.88,1.54c-0.4,0.4 -0.93,0.71 -1.59,0.9c-0.65,0.2 -1.47,0.3 -2.44,0.3c-0.9,0 -1.69,-0.13 -2.4,-0.38c-0.7,-0.25 -1.24,-0.57 -1.62,-0.97c-0.38,-0.39 -0.57,-0.8 -0.57,-1.22c0,-0.31 0.11,-0.57 0.32,-0.77c0.22,-0.2 0.48,-0.3 0.78,-0.3c0.38,0 0.71,0.17 1,0.5c0.14,0.17 0.28,0.35 0.43,0.52c0.15,0.18 0.31,0.32 0.49,0.45c0.18,0.12 0.4,0.21 0.65,0.27c0.26,0.06 0.55,0.09 0.88,0.09c0.67,0 1.19,-0.09 1.56,-0.28c0.37,-0.18 0.63,-0.45 0.78,-0.78c0.15,-0.34 0.23,-0.69 0.26,-1.08c0.03,-0.38 0.04,-1 0.06,-1.85c-0.4,0.56 -0.86,0.98 -1.39,1.28c-0.52,0.29 -1.14,0.43 -1.86,0.43c-0.87,0 -1.63,-0.22 -2.28,-0.66c-0.64,-0.45 -1.14,-1.07 -1.49,-1.86c-0.35,-0.8 -0.52,-1.72 -0.52,-2.77c0,-0.78 0.1,-1.48 0.31,-2.1c0.22,-0.63 0.52,-1.16 0.91,-1.59c0.39,-0.43 0.85,-0.76 1.36,-0.98c0.51,-0.21 1.07,-0.32 1.69,-0.32c0.73,0 1.37,0.14 1.91,0.42c0.54,0.28 1.04,0.72 1.5,1.32l0,-0.35c0,-0.45 0.11,-0.79 0.33,-1.04c0.22,-0.25 0.51,-0.37 0.86,-0.37c0.5,0 0.83,0.16 0.99,0.49c0.17,0.32 0.25,0.79 0.25,1.41zm-7.51,3.29c0,1.05 0.23,1.84 0.69,2.38c0.46,0.54 1.05,0.81 1.78,0.81c0.43,0 0.83,-0.12 1.22,-0.35c0.38,-0.23 0.69,-0.58 0.93,-1.05c0.24,-0.46 0.36,-1.02 0.36,-1.69c0,-1.06 -0.23,-1.88 -0.69,-2.47c-0.47,-0.59 -1.08,-0.88 -1.84,-0.88c-0.74,0 -1.34,0.28 -1.78,0.84c-0.45,0.56 -0.67,1.36 -0.67,2.41z" fill="#FFFFFF" id="svg_8"/>
     <path d="m331.15,768.72l0,0.32c0.46,-0.61 0.95,-1.05 1.5,-1.33c0.54,-0.28 1.16,-0.42 1.86,-0.42c0.69,0 1.3,0.15 1.84,0.45c0.53,0.29 0.94,0.71 1.2,1.26c0.17,0.31 0.28,0.66 0.33,1.02c0.05,0.37 0.08,0.84 0.08,1.41l0,4.82c0,0.52 -0.12,0.92 -0.36,1.18c-0.23,0.27 -0.54,0.4 -0.92,0.4c-0.39,0 -0.7,-0.14 -0.94,-0.41c-0.24,-0.27 -0.36,-0.66 -0.36,-1.17l0,-4.32c0,-0.85 -0.12,-1.51 -0.36,-1.96c-0.23,-0.45 -0.71,-0.68 -1.42,-0.68c-0.46,0 -0.88,0.14 -1.26,0.41c-0.38,0.28 -0.66,0.66 -0.84,1.14c-0.12,0.39 -0.19,1.11 -0.19,2.17l0,3.24c0,0.53 -0.12,0.92 -0.36,1.19c-0.24,0.26 -0.56,0.39 -0.95,0.39c-0.37,0 -0.68,-0.13 -0.92,-0.41c-0.24,-0.27 -0.36,-0.66 -0.36,-1.17l0,-7.49c0,-0.49 0.11,-0.86 0.32,-1.11c0.22,-0.24 0.51,-0.36 0.89,-0.36c0.23,0 0.43,0.05 0.62,0.16c0.18,0.11 0.33,0.27 0.44,0.48c0.11,0.22 0.16,0.48 0.16,0.79z" fill="#FFFFFF" id="svg_9"/>
     <path d="m346.93,773.2l-5.07,0c0,0.58 0.12,1.1 0.35,1.55c0.23,0.45 0.54,0.79 0.92,1.02c0.39,0.23 0.81,0.34 1.27,0.34c0.31,0 0.6,-0.03 0.85,-0.11c0.26,-0.07 0.51,-0.18 0.75,-0.34c0.24,-0.15 0.46,-0.32 0.66,-0.5c0.2,-0.18 0.47,-0.42 0.79,-0.72c0.13,-0.11 0.32,-0.17 0.57,-0.17c0.27,0 0.48,0.07 0.65,0.22c0.16,0.15 0.24,0.35 0.24,0.62c0,0.23 -0.09,0.5 -0.27,0.82c-0.19,0.31 -0.46,0.61 -0.83,0.9c-0.38,0.29 -0.84,0.53 -1.4,0.71c-0.56,0.2 -1.2,0.29 -1.93,0.29c-1.67,0 -2.97,-0.48 -3.89,-1.42c-0.92,-0.95 -1.39,-2.24 -1.39,-3.87c0,-0.77 0.12,-1.48 0.35,-2.13c0.22,-0.66 0.56,-1.22 0.99,-1.69c0.44,-0.47 0.98,-0.83 1.62,-1.08c0.64,-0.25 1.35,-0.37 2.13,-0.37c1.01,0 1.88,0.21 2.6,0.64c0.73,0.43 1.27,0.98 1.63,1.66c0.36,0.67 0.54,1.37 0.54,2.07c0,0.65 -0.18,1.07 -0.56,1.27c-0.37,0.19 -0.89,0.29 -1.57,0.29zm-5.07,-1.47l4.7,0c-0.07,-0.89 -0.31,-1.56 -0.72,-1.99c-0.42,-0.45 -0.96,-0.66 -1.64,-0.66c-0.65,0 -1.18,0.22 -1.59,0.66c-0.42,0.45 -0.67,1.11 -0.75,1.99z" fill="#FFFFFF" id="svg_10"/>
     <path d="m357.5,776.35l0,-0.26c-0.35,0.4 -0.69,0.73 -1.03,0.97c-0.34,0.26 -0.71,0.45 -1.1,0.57c-0.4,0.14 -0.83,0.2 -1.3,0.2c-0.62,0 -1.2,-0.13 -1.73,-0.39c-0.52,-0.27 -0.98,-0.64 -1.37,-1.13c-0.39,-0.49 -0.68,-1.06 -0.88,-1.72c-0.2,-0.66 -0.3,-1.37 -0.3,-2.14c0,-1.62 0.4,-2.88 1.19,-3.79c0.79,-0.9 1.83,-1.35 3.12,-1.35c0.75,0 1.38,0.12 1.9,0.38c0.51,0.26 1.01,0.65 1.5,1.18l0,-3.82c0,-0.54 0.1,-0.94 0.31,-1.21c0.22,-0.27 0.52,-0.41 0.91,-0.41c0.39,0 0.69,0.13 0.91,0.38c0.21,0.25 0.32,0.62 0.32,1.1l0,11.44c0,0.49 -0.12,0.86 -0.35,1.11c-0.22,0.25 -0.52,0.37 -0.88,0.37c-0.35,0 -0.65,-0.13 -0.88,-0.38c-0.23,-0.26 -0.34,-0.63 -0.34,-1.1zm-5.1,-3.81c0,0.7 0.1,1.3 0.32,1.8c0.22,0.49 0.52,0.86 0.9,1.11c0.38,0.25 0.8,0.38 1.24,0.38c0.46,0 0.88,-0.12 1.25,-0.36c0.38,-0.23 0.68,-0.6 0.91,-1.09c0.22,-0.49 0.33,-1.11 0.33,-1.84c0,-0.69 -0.11,-1.28 -0.33,-1.78c-0.23,-0.5 -0.53,-0.88 -0.92,-1.14c-0.38,-0.26 -0.8,-0.39 -1.26,-0.39c-0.47,0 -0.89,0.13 -1.27,0.4c-0.37,0.27 -0.66,0.65 -0.87,1.16c-0.2,0.5 -0.3,1.09 -0.3,1.75z" fill="#FFFFFF" id="svg_11"/>
     <path d="m368.09,764.91l0,3.96c0.49,-0.5 0.99,-0.89 1.5,-1.16c0.5,-0.27 1.13,-0.4 1.88,-0.4c0.86,0 1.61,0.2 2.26,0.61c0.65,0.41 1.15,1 1.51,1.77c0.36,0.78 0.54,1.7 0.54,2.76c0,0.79 -0.1,1.51 -0.3,2.16c-0.2,0.66 -0.49,1.23 -0.87,1.71c-0.38,0.48 -0.84,0.85 -1.38,1.12c-0.54,0.26 -1.14,0.39 -1.79,0.39c-0.4,0 -0.78,-0.05 -1.13,-0.14c-0.35,-0.1 -0.65,-0.22 -0.9,-0.38c-0.24,-0.15 -0.45,-0.31 -0.63,-0.48c-0.17,-0.16 -0.4,-0.41 -0.69,-0.74l0,0.26c0,0.48 -0.11,0.85 -0.35,1.11c-0.23,0.25 -0.53,0.37 -0.89,0.37c-0.37,0 -0.66,-0.12 -0.88,-0.37c-0.22,-0.26 -0.32,-0.63 -0.32,-1.11l0,-11.32c0,-0.53 0.1,-0.93 0.31,-1.19c0.21,-0.27 0.51,-0.41 0.89,-0.41c0.4,0 0.71,0.13 0.92,0.39c0.22,0.25 0.32,0.62 0.32,1.09zm0.13,7.71c0,1.03 0.23,1.82 0.71,2.37c0.47,0.56 1.09,0.84 1.85,0.84c0.65,0 1.22,-0.29 1.69,-0.85c0.47,-0.57 0.71,-1.38 0.71,-2.44c0,-0.68 -0.1,-1.27 -0.3,-1.77c-0.19,-0.49 -0.47,-0.87 -0.83,-1.14c-0.36,-0.27 -0.79,-0.4 -1.27,-0.4c-0.49,0 -0.93,0.13 -1.32,0.4c-0.38,0.27 -0.69,0.66 -0.91,1.17c-0.22,0.51 -0.33,1.11 -0.33,1.82z" fill="#FFFFFF" id="svg_12"/>
     <path d="m379.14,778.15l0.24,-0.58l-3.19,-8.03c-0.2,-0.46 -0.3,-0.8 -0.3,-1.01c0,-0.22 0.06,-0.43 0.17,-0.61c0.12,-0.2 0.27,-0.35 0.47,-0.46c0.2,-0.12 0.41,-0.17 0.62,-0.17c0.38,0 0.66,0.12 0.85,0.35c0.19,0.24 0.36,0.58 0.5,1.02l2.2,6.39l2.08,-5.94c0.16,-0.48 0.31,-0.86 0.44,-1.13c0.14,-0.27 0.28,-0.46 0.43,-0.55c0.14,-0.1 0.35,-0.14 0.63,-0.14c0.2,0 0.38,0.05 0.56,0.15c0.18,0.11 0.32,0.25 0.42,0.43c0.1,0.17 0.15,0.36 0.15,0.56c-0.03,0.12 -0.07,0.29 -0.13,0.51c-0.05,0.22 -0.12,0.45 -0.2,0.67l-3.39,8.86c-0.29,0.78 -0.57,1.39 -0.85,1.83c-0.28,0.44 -0.65,0.78 -1.11,1.02c-0.46,0.24 -1.07,0.36 -1.85,0.36c-0.76,0 -1.33,-0.09 -1.71,-0.25c-0.38,-0.17 -0.57,-0.47 -0.57,-0.9c0,-0.3 0.09,-0.53 0.27,-0.69c0.18,-0.16 0.45,-0.25 0.8,-0.25c0.14,0 0.28,0.02 0.41,0.06c0.16,0.04 0.31,0.06 0.43,0.06c0.29,0 0.53,-0.04 0.7,-0.13c0.17,-0.09 0.32,-0.24 0.46,-0.46c0.14,-0.22 0.29,-0.54 0.47,-0.97z" fill="#FFFFFF" id="svg_13"/>
    </g>
    <g id="svg_14">
     <path d="m416.7,767.51l0.62,0l0,-0.78c0,-0.81 0.1,-1.45 0.31,-1.93c0.2,-0.48 0.55,-0.83 1.05,-1.05c0.49,-0.22 1.16,-0.32 2.01,-0.32c1.52,0 2.28,0.36 2.28,1.11c0,0.24 -0.08,0.44 -0.24,0.61c-0.16,0.17 -0.35,0.26 -0.56,0.26c-0.1,0 -0.28,-0.02 -0.53,-0.06c-0.24,-0.03 -0.45,-0.06 -0.62,-0.06c-0.47,0 -0.77,0.14 -0.91,0.42c-0.12,0.28 -0.19,0.67 -0.19,1.18l0,0.62l0.63,0c0.99,0 1.48,0.3 1.48,0.9c0,0.41 -0.13,0.69 -0.39,0.8c-0.26,0.11 -0.63,0.17 -1.09,0.17l-0.63,0l0,6.87c0,0.51 -0.12,0.9 -0.37,1.17c-0.24,0.27 -0.56,0.41 -0.95,0.41c-0.36,0 -0.67,-0.14 -0.91,-0.41c-0.25,-0.27 -0.37,-0.66 -0.37,-1.17l0,-6.87l-0.71,0c-0.39,0 -0.68,-0.08 -0.89,-0.26c-0.21,-0.17 -0.32,-0.4 -0.32,-0.68c0,-0.62 0.43,-0.93 1.3,-0.93" fill="#FFFFFF" id="svg_15"/>
     <path d="m425.19,774.09l0,2.16c0,0.53 -0.13,0.92 -0.37,1.18c-0.25,0.27 -0.56,0.4 -0.94,0.4c-0.38,0 -0.69,-0.13 -0.93,-0.4c-0.23,-0.27 -0.36,-0.66 -0.36,-1.18l0,-7.22c0,-1.16 0.42,-1.75 1.27,-1.75c0.43,0 0.74,0.14 0.93,0.41c0.19,0.28 0.29,0.68 0.32,1.21c0.3,-0.53 0.62,-0.93 0.94,-1.21c0.34,-0.27 0.77,-0.41 1.31,-0.41c0.55,0 1.08,0.14 1.59,0.41c0.52,0.28 0.77,0.64 0.77,1.09c0,0.31 -0.11,0.58 -0.32,0.78c-0.23,0.21 -0.46,0.31 -0.71,0.31c-0.1,0 -0.33,-0.06 -0.69,-0.18c-0.37,-0.11 -0.69,-0.17 -0.97,-0.17c-0.38,0 -0.69,0.1 -0.93,0.29c-0.24,0.21 -0.43,0.5 -0.56,0.89c-0.13,0.4 -0.22,0.87 -0.28,1.41c-0.05,0.54 -0.07,1.2 -0.07,1.98" fill="#FFFFFF" id="svg_16"/>
     <path d="m437.11,773.19l-5.07,0c0.01,0.59 0.12,1.11 0.35,1.56c0.24,0.45 0.54,0.79 0.93,1.02c0.38,0.23 0.8,0.34 1.27,0.34c0.31,0 0.59,-0.03 0.85,-0.11c0.25,-0.07 0.5,-0.19 0.74,-0.34c0.24,-0.16 0.46,-0.32 0.67,-0.5c0.2,-0.18 0.46,-0.42 0.79,-0.72c0.13,-0.12 0.32,-0.18 0.56,-0.18c0.27,0 0.49,0.08 0.65,0.23c0.17,0.14 0.25,0.35 0.25,0.61c0,0.24 -0.09,0.51 -0.27,0.82c-0.19,0.32 -0.46,0.62 -0.84,0.91c-0.37,0.28 -0.84,0.52 -1.39,0.71c-0.56,0.19 -1.21,0.29 -1.94,0.29c-1.67,0 -2.96,-0.48 -3.88,-1.43c-0.93,-0.95 -1.4,-2.24 -1.4,-3.86c0,-0.77 0.12,-1.48 0.35,-2.14c0.23,-0.66 0.56,-1.21 1,-1.69c0.44,-0.47 0.97,-0.82 1.61,-1.07c0.64,-0.25 1.35,-0.38 2.13,-0.38c1.01,0 1.88,0.22 2.61,0.65c0.72,0.42 1.27,0.98 1.63,1.65c0.36,0.68 0.54,1.37 0.54,2.08c0,0.64 -0.19,1.07 -0.56,1.26c-0.37,0.2 -0.9,0.29 -1.58,0.29m-5.07,-1.47l4.7,0c-0.06,-0.89 -0.3,-1.55 -0.71,-1.99c-0.42,-0.44 -0.96,-0.66 -1.64,-0.66c-0.65,0 -1.18,0.22 -1.6,0.67c-0.41,0.45 -0.66,1.11 -0.75,1.98" fill="#FFFFFF" id="svg_17"/>
     <path d="m447.9,773.19l-5.07,0c0,0.59 0.12,1.11 0.35,1.56c0.23,0.45 0.54,0.79 0.92,1.02c0.39,0.23 0.81,0.34 1.28,0.34c0.3,0 0.59,-0.03 0.84,-0.11c0.26,-0.07 0.5,-0.19 0.75,-0.34c0.24,-0.16 0.46,-0.32 0.66,-0.5c0.2,-0.18 0.47,-0.42 0.79,-0.72c0.14,-0.12 0.33,-0.18 0.57,-0.18c0.27,0 0.48,0.08 0.65,0.23c0.16,0.14 0.24,0.35 0.24,0.61c0,0.24 -0.09,0.51 -0.27,0.82c-0.18,0.32 -0.46,0.62 -0.83,0.91c-0.37,0.28 -0.84,0.52 -1.4,0.71c-0.56,0.19 -1.21,0.29 -1.93,0.29c-1.67,0 -2.96,-0.48 -3.89,-1.43c-0.92,-0.95 -1.39,-2.24 -1.39,-3.86c0,-0.77 0.12,-1.48 0.35,-2.14c0.23,-0.66 0.56,-1.21 0.99,-1.69c0.44,-0.47 0.98,-0.82 1.62,-1.07c0.64,-0.25 1.35,-0.38 2.13,-0.38c1.01,0 1.88,0.22 2.61,0.65c0.72,0.42 1.27,0.98 1.62,1.65c0.36,0.68 0.55,1.37 0.55,2.08c0,0.64 -0.2,1.07 -0.56,1.26c-0.38,0.2 -0.9,0.29 -1.58,0.29m-5.07,-1.47l4.7,0c-0.07,-0.89 -0.31,-1.55 -0.72,-1.99c-0.42,-0.44 -0.96,-0.66 -1.64,-0.66c-0.64,0 -1.17,0.22 -1.59,0.67c-0.41,0.45 -0.67,1.11 -0.75,1.98" fill="#FFFFFF" id="svg_18"/>
     <path d="m453.58,768.74l0,0.31c0.49,-0.6 0.99,-1.04 1.52,-1.32c0.52,-0.29 1.12,-0.43 1.79,-0.43c0.79,0 1.53,0.21 2.2,0.62c0.67,0.41 1.2,1.01 1.59,1.8c0.39,0.8 0.59,1.73 0.59,2.82c0,0.79 -0.11,1.53 -0.34,2.2c-0.22,0.67 -0.53,1.23 -0.93,1.68c-0.39,0.45 -0.85,0.8 -1.39,1.04c-0.54,0.25 -1.11,0.37 -1.72,0.37c-0.74,0 -1.37,-0.15 -1.87,-0.45c-0.5,-0.29 -0.98,-0.73 -1.44,-1.3l0,3.89c0,1.13 -0.42,1.71 -1.24,1.71c-0.49,0 -0.81,-0.15 -0.98,-0.44c-0.15,-0.3 -0.23,-0.72 -0.23,-1.29l0,-11.2c0,-0.49 0.11,-0.85 0.32,-1.1c0.22,-0.24 0.51,-0.37 0.89,-0.37c0.36,0 0.66,0.13 0.89,0.38c0.24,0.25 0.35,0.61 0.35,1.08m5.08,3.77c0,-0.69 -0.1,-1.27 -0.31,-1.76c-0.21,-0.5 -0.5,-0.87 -0.87,-1.13c-0.36,-0.26 -0.78,-0.4 -1.23,-0.4c-0.71,0 -1.32,0.29 -1.81,0.85c-0.49,0.56 -0.74,1.39 -0.74,2.49c0,1.03 0.25,1.83 0.74,2.41c0.48,0.57 1.08,0.85 1.81,0.85c0.43,0 0.83,-0.12 1.2,-0.37c0.37,-0.25 0.66,-0.63 0.88,-1.13c0.22,-0.5 0.33,-1.1 0.33,-1.81" fill="#FFFFFF" id="svg_19"/>
     <path d="m463.88,766.08c-0.36,0 -0.67,-0.12 -0.92,-0.34c-0.26,-0.22 -0.39,-0.53 -0.39,-0.93c0,-0.37 0.13,-0.67 0.4,-0.91c0.26,-0.24 0.56,-0.36 0.91,-0.36c0.34,0 0.64,0.11 0.89,0.32c0.26,0.22 0.39,0.53 0.39,0.95c0,0.39 -0.12,0.71 -0.37,0.93c-0.26,0.22 -0.56,0.34 -0.91,0.34m1.28,2.67l0,7.51c0,0.51 -0.12,0.9 -0.37,1.17c-0.25,0.27 -0.56,0.4 -0.94,0.4c-0.38,0 -0.68,-0.14 -0.92,-0.41c-0.24,-0.27 -0.36,-0.66 -0.36,-1.16l0,-7.43c0,-0.51 0.12,-0.9 0.36,-1.16c0.24,-0.26 0.54,-0.39 0.92,-0.39c0.38,0 0.69,0.13 0.94,0.39c0.25,0.26 0.37,0.63 0.37,1.08" fill="#FFFFFF" id="svg_20"/>
     <path d="m473.52,776.64l-2.28,-3.76l-1.41,1.33l0,2.06c0,0.5 -0.13,0.88 -0.39,1.15c-0.26,0.27 -0.57,0.41 -0.91,0.41c-0.4,0 -0.72,-0.13 -0.94,-0.4c-0.23,-0.27 -0.35,-0.66 -0.35,-1.18l0,-11.06c0,-0.57 0.12,-1.01 0.34,-1.31c0.22,-0.31 0.54,-0.46 0.95,-0.46c0.4,0 0.71,0.14 0.95,0.41c0.23,0.28 0.35,0.68 0.35,1.21l0,6.29l2.92,-3.06c0.36,-0.38 0.63,-0.64 0.82,-0.78c0.19,-0.14 0.42,-0.21 0.69,-0.21c0.33,0 0.6,0.11 0.82,0.31c0.21,0.21 0.32,0.47 0.32,0.77c0,0.38 -0.35,0.89 -1.06,1.53l-1.37,1.26l2.66,4.18c0.19,0.31 0.34,0.54 0.42,0.71c0.08,0.16 0.13,0.32 0.13,0.46c0,0.41 -0.11,0.73 -0.34,0.97c-0.23,0.24 -0.52,0.36 -0.89,0.36c-0.31,0 -0.56,-0.08 -0.73,-0.26c-0.17,-0.17 -0.41,-0.48 -0.7,-0.93" fill="#FFFFFF" id="svg_21"/>
     <path d="m479.16,777.83c-0.39,0 -0.73,-0.13 -1.01,-0.38c-0.29,-0.25 -0.43,-0.61 -0.43,-1.07c0,-0.38 0.14,-0.72 0.41,-0.99c0.27,-0.28 0.6,-0.42 1,-0.42c0.4,0 0.74,0.14 1.03,0.41c0.28,0.27 0.42,0.61 0.42,1c0,0.45 -0.14,0.81 -0.42,1.06c-0.29,0.26 -0.62,0.39 -1,0.39" fill="#FFFFFF" id="svg_22"/>
     <path d="m492.06,774.62c0,0.32 -0.1,0.67 -0.29,1.03c-0.19,0.37 -0.49,0.72 -0.89,1.05c-0.39,0.34 -0.89,0.61 -1.49,0.81c-0.6,0.2 -1.28,0.3 -2.03,0.3c-1.61,0 -2.86,-0.47 -3.76,-1.4c-0.9,-0.93 -1.35,-2.19 -1.35,-3.76c0,-1.06 0.21,-2 0.62,-2.82c0.41,-0.81 1.01,-1.45 1.78,-1.9c0.78,-0.44 1.72,-0.67 2.8,-0.67c0.67,0 1.28,0.1 1.85,0.3c0.56,0.19 1.03,0.45 1.43,0.76c0.38,0.31 0.68,0.64 0.88,0.99c0.21,0.35 0.31,0.68 0.31,0.99c0,0.31 -0.11,0.57 -0.34,0.78c-0.23,0.22 -0.52,0.33 -0.84,0.33c-0.22,0 -0.4,-0.06 -0.54,-0.17c-0.14,-0.11 -0.3,-0.29 -0.48,-0.54c-0.32,-0.48 -0.64,-0.84 -0.99,-1.08c-0.35,-0.24 -0.79,-0.36 -1.32,-0.36c-0.76,0 -1.38,0.3 -1.85,0.9c-0.47,0.59 -0.71,1.42 -0.71,2.45c0,0.49 0.07,0.94 0.19,1.35c0.12,0.4 0.29,0.75 0.52,1.04c0.23,0.29 0.5,0.51 0.82,0.66c0.33,0.15 0.69,0.22 1.07,0.22c0.52,0 0.97,-0.12 1.34,-0.36c0.37,-0.24 0.7,-0.61 0.98,-1.1c0.16,-0.29 0.33,-0.52 0.51,-0.68c0.18,-0.17 0.41,-0.25 0.68,-0.25c0.31,0 0.58,0.12 0.78,0.36c0.21,0.24 0.32,0.5 0.32,0.77" fill="#FFFFFF" id="svg_23"/>
     <path d="m503.25,772.56c0,0.77 -0.12,1.48 -0.36,2.14c-0.24,0.65 -0.59,1.21 -1.05,1.68c-0.45,0.47 -1,0.82 -1.63,1.08c-0.64,0.24 -1.35,0.37 -2.14,0.37c-0.78,0 -1.49,-0.13 -2.12,-0.38c-0.62,-0.25 -1.17,-0.62 -1.62,-1.08c-0.46,-0.48 -0.81,-1.04 -1.06,-1.68c-0.22,-0.65 -0.35,-1.36 -0.35,-2.13c0,-0.79 0.13,-1.51 0.36,-2.16c0.24,-0.65 0.59,-1.21 1.04,-1.67c0.45,-0.46 0.99,-0.82 1.63,-1.07c0.64,-0.25 1.35,-0.38 2.12,-0.38c0.79,0 1.5,0.13 2.14,0.38c0.64,0.26 1.18,0.62 1.64,1.08c0.46,0.48 0.81,1.03 1.04,1.68c0.24,0.65 0.36,1.35 0.36,2.14m-2.61,0c0,-1.06 -0.23,-1.88 -0.69,-2.47c-0.47,-0.6 -1.09,-0.89 -1.88,-0.89c-0.51,0 -0.95,0.13 -1.34,0.4c-0.39,0.26 -0.68,0.64 -0.89,1.16c-0.21,0.51 -0.31,1.11 -0.31,1.8c0,0.68 0.1,1.27 0.3,1.77c0.21,0.51 0.51,0.9 0.89,1.17c0.39,0.26 0.84,0.4 1.35,0.4c0.79,0 1.42,-0.3 1.88,-0.89c0.46,-0.59 0.69,-1.41 0.69,-2.45" fill="#FFFFFF" id="svg_24"/>
     <path d="m513.14,772.75l0,3.45c0,0.54 -0.12,0.95 -0.37,1.22c-0.25,0.28 -0.57,0.41 -0.98,0.41c-0.39,0 -0.71,-0.13 -0.95,-0.41c-0.24,-0.27 -0.37,-0.68 -0.37,-1.22l0,-4.14c0,-0.65 -0.02,-1.16 -0.06,-1.52c-0.05,-0.35 -0.17,-0.65 -0.36,-0.88c-0.2,-0.24 -0.51,-0.36 -0.94,-0.36c-0.85,0 -1.4,0.3 -1.67,0.89c-0.27,0.57 -0.41,1.41 -0.41,2.5l0,3.51c0,0.53 -0.12,0.94 -0.36,1.22c-0.25,0.27 -0.57,0.41 -0.96,0.41c-0.4,0 -0.72,-0.14 -0.97,-0.41c-0.25,-0.28 -0.38,-0.69 -0.38,-1.22l0,-7.42c0,-0.49 0.11,-0.86 0.34,-1.12c0.23,-0.25 0.52,-0.38 0.89,-0.38c0.36,0 0.65,0.13 0.89,0.36c0.24,0.24 0.35,0.56 0.35,0.98l0,0.25c0.46,-0.54 0.94,-0.94 1.45,-1.18c0.52,-0.26 1.08,-0.39 1.71,-0.39c0.65,0 1.21,0.13 1.68,0.39c0.47,0.26 0.85,0.65 1.16,1.18c0.44,-0.53 0.91,-0.93 1.41,-1.18c0.5,-0.26 1.05,-0.39 1.66,-0.39c0.71,0 1.32,0.14 1.84,0.42c0.51,0.28 0.89,0.68 1.14,1.19c0.22,0.48 0.33,1.21 0.33,2.22l0,5.06c0,0.55 -0.12,0.96 -0.36,1.23c-0.25,0.27 -0.58,0.41 -0.98,0.41c-0.4,0 -0.72,-0.14 -0.97,-0.41c-0.25,-0.28 -0.38,-0.69 -0.38,-1.23l0,-4.36c0,-0.56 -0.02,-1 -0.06,-1.33c-0.05,-0.34 -0.18,-0.63 -0.39,-0.85c-0.21,-0.23 -0.53,-0.35 -0.95,-0.35c-0.34,0 -0.67,0.11 -0.97,0.31c-0.31,0.2 -0.55,0.48 -0.73,0.82c-0.18,0.43 -0.28,1.21 -0.28,2.32" fill="#FFFFFF" id="svg_25"/>
    </g>
    <g id="svg_26">
     <path d="m392.44,771.93c-0.01,0 -0.01,-0.01 -0.01,-0.02c0,0.01 0,0.02 0.01,0.02z" fill="#FFFFFF" id="svg_27"/>
     <path d="m392.57,772.76c0,0 0,0 0,0c-0.05,-0.24 -0.09,-0.47 -0.12,-0.7c0.03,0.23 0.07,0.46 0.12,0.7z" fill="#FFFFFF" id="svg_28"/>
     <path d="m393.42,775.17c0,-0.01 -0.01,-0.03 -0.01,-0.04c0,0.01 0.01,0.03 0.01,0.04z" fill="#FFFFFF" id="svg_29"/>
     <path d="m393.34,775.01c-0.02,-0.05 -0.04,-0.09 -0.06,-0.14c0.02,0.05 0.04,0.09 0.06,0.14z" fill="#FFFFFF" id="svg_30"/>
     <path d="m392.81,773.68c0.12,0.4 0.28,0.79 0.45,1.16c-0.18,-0.37 -0.33,-0.76 -0.45,-1.16c0,0 0,0 0,0z" fill="#FFFFFF" id="svg_31"/>
     <path d="m402.47,761.99c0.51,0 0.87,0.04 1.3,0.12l0.12,-0.77c0,0 -1.17,-0.36 -2.71,-0.23l-0.12,-0.42c0.48,-0.1 0.84,-0.52 0.84,-1.03c0,-0.58 -0.48,-1.05 -1.06,-1.05c-0.59,0 -1.06,0.47 -1.06,1.05c0,0.51 0.36,0.93 0.84,1.03l0.13,0.47c-1.63,0.22 -2.93,0.86 -2.93,0.86l0.23,0.7c0.98,-0.33 1.84,-0.53 2.62,-0.61c0.76,-0.08 1.34,-0.12 1.8,-0.12z" fill="#FFFFFF" id="svg_32"/>
     <path d="m393.4,765.85l0.01,-0.01c0.04,-0.05 0.08,-0.09 0.11,-0.14l-0.31,-0.22l-0.49,-0.36c-0.03,0.04 -0.79,0.74 -1.4,2.05c-0.02,-0.04 -0.06,-0.09 -0.09,-0.12c-0.18,-0.2 -0.43,-0.3 -0.76,-0.3c0,0 -0.01,0 -0.01,0c-0.2,0 -0.34,-0.06 -0.43,-0.14c0.09,-0.12 0.15,-0.26 0.15,-0.42c0,-0.36 -0.31,-0.67 -0.68,-0.67c-0.36,0 -0.66,0.31 -0.66,0.67c0,0.37 0.3,0.67 0.66,0.67c0.06,0 0.12,-0.01 0.17,-0.02c0.17,0.19 0.43,0.34 0.81,0.34c0.2,-0.01 0.34,0.04 0.44,0.15c0.11,0.12 0.15,0.3 0.16,0.43c0,0 0,0 -0.01,0c-0.43,1.19 -0.31,2.67 -0.31,2.67l1.06,0.05c0.02,-0.54 0.1,-1.49 0.37,-2.23c0.53,-1.45 1.19,-2.36 1.21,-2.4z" fill="#FFFFFF" id="svg_33"/>
     <path d="m411.67,762.88c-0.36,0 -0.67,0.3 -0.67,0.67c0,0.05 0.01,0.11 0.03,0.16c-0.19,0.17 -0.35,0.43 -0.34,0.81c0,0.2 -0.05,0.34 -0.15,0.44c-0.09,0.07 -0.2,0.11 -0.3,0.14c-0.79,-1.1 -1.76,-1.77 -1.76,-1.77l-0.76,0.81c0.58,0.52 1.16,1.17 1.73,1.99c0.4,0.56 0.8,1.29 1.14,2.01l1.02,-0.48c0,0 -0.46,-1.16 -1.12,-2.19c0.11,-0.04 0.23,-0.11 0.33,-0.2c0.2,-0.18 0.3,-0.43 0.29,-0.75c0,-0.21 0.07,-0.35 0.15,-0.45c0.11,0.09 0.26,0.15 0.41,0.15c0.37,0 0.67,-0.3 0.67,-0.67c0,-0.37 -0.3,-0.67 -0.67,-0.67z" fill="#FFFFFF" id="svg_34"/>
     <path d="m409.02,772.08c-1.41,0.69 -3.73,1.59 -6.78,2.02c-1.2,0.17 -2.36,0.23 -3.43,0.23c-1.4,0 -2.62,-0.11 -3.57,-0.23c-1.07,-0.13 -1.91,-0.3 -2.43,-0.41c0.12,0.39 0.27,0.78 0.45,1.15c0.01,0.01 0.01,0.03 0.02,0.03c0.02,0.05 0.04,0.09 0.06,0.14c0.02,0.04 0.04,0.08 0.07,0.12c0,0.01 0.01,0.03 0.01,0.04c0.31,0.57 0.67,1.09 1.09,1.55c1.43,1.57 2.9,1.82 2.92,1.82l0.02,0l0.02,0.01c0.02,0.01 1.32,0.43 3.29,0.43c1.95,0 3.86,-0.4 5.68,-1.17c1.34,-0.69 2.62,-1.74 3.25,-2.67c0.49,-0.72 0.84,-1.49 1.05,-2.29c0.11,-0.43 0.2,-1.11 0.15,-1.83c-0.4,0.27 -1.03,0.65 -1.87,1.06z" fill="#FFFFFF" id="svg_35"/>
     <path d="m393.86,766.18c-0.04,0.07 -0.65,0.93 -1.14,2.26c-0.36,0.99 -0.34,2.44 -0.34,2.46l0,0c0,0.34 0.02,0.68 0.05,1.01c0,0.01 0,0.02 0.01,0.02c0,0.04 0.01,0.08 0.01,0.13c0.03,0.23 0.07,0.46 0.12,0.7c0.7,0.18 4.88,1.15 9.55,0.5c2.93,-0.41 5.15,-1.27 6.5,-1.93c1.12,-0.54 1.84,-1.03 2.12,-1.23c-0.28,-1.03 -1.04,-2.65 -1.75,-3.65c-2,-2.87 -4.16,-3.6 -5.27,-3.78c-0.43,-0.07 -0.77,-0.11 -1.25,-0.11c-0.44,0 -1,0.03 -1.74,0.11c-0.74,0.08 -1.57,0.27 -2.53,0.6c-1.35,0.45 -2.57,1.16 -3.53,2.05l-0.03,0.03c-0.14,0.13 -0.44,0.4 -0.78,0.83zm12.27,-0.66c0.96,0 1.74,0.78 1.74,1.74c0,0.96 -0.78,1.74 -1.74,1.74c-0.96,0 -1.75,-0.78 -1.75,-1.74c0,-0.96 0.79,-1.74 1.75,-1.74zm-8.25,-0.07c1.56,0 2.82,1.26 2.82,2.82c0,1.55 -1.26,2.81 -2.82,2.81c-1.55,0 -2.81,-1.26 -2.81,-2.81c0,-1.56 1.26,-2.82 2.81,-2.82z" fill="#FFFFFF" id="svg_36"/>
    </g>
   </g>
  </g>
  <g id="OBJECTS">
   <g id="svg_37">
    <g id="svg_38">
     <g id="svg_39"/>
    </g>
    <g id="svg_43">
     <g id="svg_44">
      <g id="svg_45">
       <path d="m-174.45,373.21c-33.6,6.2 -65.5,1.67 -63.97,-40.4c1.53,-42.09 -22.85,-43.78 -56.35,-45.47c-33.52,-1.67 -16.76,-52.18 -39.61,-72.37c-22.85,-20.21 -44.18,18.52 -63.97,0c-19.8,-18.52 24.36,-77.44 -7.62,-97.65c-31.99,-20.19 -48.72,26.95 -56.35,53.87c-7.6,26.95 -21.32,26.95 -74.64,26.95c-53.31,0 -57.88,23.57 -74.64,58.92c-16.76,35.35 -47.22,23.57 -62.44,70.7c-15.23,47.13 15.23,79.1 15.23,79.1l9.9,10.63c7.82,-92.83 78.46,-165.48 164.5,-165.48c91.29,0 165.26,81.76 165.26,182.62c0,94.76 -65.29,172.64 -148.87,181.75c28.89,25.51 68.92,29.04 92.52,4.27c30.46,-31.99 51.78,-65.65 89.86,-75.75c38.08,-10.12 24.36,-38.73 30.46,-75.77c6.1,-37.02 37.98,-22.96 80.73,-23.57c67.18,-0.94 59.41,-83.33 0,-72.37z" fill="#63C8D3" id="svg_46"/>
       <path d="m-598.49,167.66c9.18,1.53 42.44,-17.39 30.52,-45.33c-11.92,-27.93 -81.33,36.88 -30.52,45.33z" fill="#63C8D3" id="svg_47"/>
       <path d="m-165.1,269.88c22.66,-23.5 7.79,-52.48 -21.98,-50.91c-15.72,0.82 -37.55,15.66 -36.85,35.26c0.7,19.58 36.15,39.15 58.83,15.66z" fill="#63C8D3" id="svg_48"/>
       <path d="m-211.32,550.14c-6.78,-6.15 -23.58,-11.27 -29.14,-3.78c-5.56,7.49 2.25,24.72 9.01,30.87c6.78,6.13 16.76,5.05 22.3,-2.42c5.56,-7.49 4.59,-18.52 -2.17,-24.67z" fill="#63C8D3" id="svg_49"/>
       <path d="m-49.77,407.5c-6.78,-9.53 -26.1,-14.72 -38,-4.34c-11.92,10.35 -11.87,32.32 -5.1,41.85c6.8,9.51 21.94,8.83 33.83,-1.53c11.92,-10.37 16.04,-26.48 9.26,-35.98z" fill="#63C8D3" id="svg_50"/>
      </g>
      <g id="svg_51">
       <path d="m-179.18,373.21c-33.58,6.2 -65.48,1.67 -63.97,-40.4c1.53,-42.09 -22.83,-43.78 -56.35,-45.47c-33.52,-1.67 -16.76,-52.18 -39.61,-72.37c-22.83,-20.21 -44.16,18.52 -63.95,0c-19.82,-18.52 24.36,-77.44 -7.62,-97.65c-31.99,-20.19 -48.74,26.95 -56.35,53.87c-7.62,26.95 -21.32,26.95 -74.64,26.95s-78.78,16.27 -95.54,51.62c-16.76,35.35 -38.04,28.1 -41.57,78c-4.25,60.63 15.25,79.1 15.25,79.1l9.88,10.63c7.82,-92.83 78.48,-165.48 164.52,-165.48c91.27,0 165.26,81.76 165.26,182.62c0,94.76 -65.31,172.64 -148.89,181.75c28.91,25.51 68.92,29.04 92.52,4.27c30.46,-31.99 51.78,-65.65 89.86,-75.75c38.08,-10.12 24.38,-38.73 30.48,-75.77c6.07,-37.02 37.95,-22.96 80.71,-23.57c67.18,-0.94 59.41,-83.33 0,-72.37z" fill="#FFFFFF" id="svg_52"/>
       <path d="m-603.23,167.66c9.18,1.53 42.46,-17.39 30.54,-45.33c-11.92,-27.93 -81.33,36.88 -30.54,45.33z" fill="#FFFFFF" id="svg_53"/>
       <path d="m-191.8,218.97c-15.72,0.82 -37.57,15.66 -36.85,35.26c0.7,19.58 36.13,39.15 58.81,15.66c22.68,-23.5 7.79,-52.48 -21.96,-50.91z" fill="#FFFFFF" id="svg_54"/>
       <path d="m-236.17,577.21c-6.78,-6.13 -14.57,-23.38 -9.03,-30.84c5.56,-7.49 22.39,-2.37 29.14,3.78c6.78,6.15 7.75,17.18 2.19,24.67c-5.56,7.46 -15.55,8.54 -22.3,2.39z" fill="#FFFFFF" id="svg_55"/>
       <path d="m-54.49,407.5c6.78,9.51 2.63,25.61 -9.28,35.98c-11.89,10.35 -27.04,11.03 -33.81,1.53c-6.8,-9.53 -6.82,-31.5 5.08,-41.85c11.92,-10.37 31.22,-5.19 38.02,4.34z" fill="#FFFFFF" id="svg_56"/>
       <g id="svg_57">
        <path d="m-458.82,186.01c0,0 16.21,-65.47 37.81,-58.75c21.6,6.71 7.09,40.49 7.09,40.49s-13,-33.96 -44.9,18.26z" fill="#EBFBFC" id="svg_58"/>
        <path d="m-378.5,231.71c0,0 24.83,-19.6 33.09,0c8.26,19.58 18.9,54.83 18.9,54.83s-29.54,-53.54 -51.99,-54.83z" fill="#EBFBFC" id="svg_59"/>
        <path d="m-291.05,299.6c0,0 28.35,3.92 33.07,16.97c4.74,13.05 5.9,43.1 5.9,43.1s-9.45,-50.94 -38.97,-60.07z" fill="#EBFBFC" id="svg_60"/>
        <path d="m-158.84,388.37c0,0 20.79,16.29 5.99,36.22c-14.78,19.93 -75.82,0 -75.82,0s74.47,8.19 69.84,-36.22z" fill="#EBFBFC" id="svg_61"/>
        <path d="m-271.58,475.36c0,0 10.05,53.14 -37.21,67.3c0,0 31.9,-39.04 37.21,-67.3z" fill="#EBFBFC" id="svg_62"/>
        <path d="m-601.76,264.34c0,0 11.26,-33.43 31.6,-45.42c20.37,-12.02 58.17,0 58.17,0s-61.42,4.95 -89.78,45.42z" fill="#EBFBFC" id="svg_63"/>
       </g>
      </g>
     </g>
     <g id="svg_64">
      <g id="svg_65">
       <path d="m724.94,549.3c-10.22,-59.27 -120.02,-49.39 -159.61,-55.02c-39.57,-5.66 -22.98,-43.75 -1.27,-42.34c21.71,1.41 60.02,-4.23 62.57,-31.03c2.55,-26.83 -14.04,-31.05 -56.18,-39.53c-42.14,-8.45 -62.57,-36.69 -12.76,-60.68c49.79,-23.99 40.84,-73.38 11.49,-83.87c-29.37,-10.52 -65.12,90.93 -79.18,75.42c-14.04,-15.54 31.92,-63.52 8.94,-75.42c-22.98,-11.92 -28.1,71.17 -53.63,57.06c-25.53,-14.11 34.47,-118.54 29.37,-156.63c-5.12,-38.1 -54.9,-50.79 -71.51,8.47c-16.61,59.27 -12.76,146.75 -31.92,162.27c-19.16,15.52 -45.96,-9.88 -51.08,-56.45c-5.1,-46.55 -30.63,-70.56 -53.63,-42.84c-22.98,27.72 39.59,93.66 28.1,120.46c-11.49,26.81 -53.63,-2.82 -72.79,-47.98c-19.16,-45.16 -53.63,-95.96 -79.16,-60.68c-25.55,35.28 34.47,83.26 52.36,101.59c17.86,18.36 7.84,46.57 -10.22,46.57c-44.71,0 -99.02,9.72 -88.8,67.58c10.22,57.86 157.75,-18.19 165.41,-5.49c7.67,12.72 7.67,26.83 -30.65,39.53c-38.32,12.7 -15.31,43.75 0,46.57c15.31,2.82 55.14,-33.54 67.67,-22.58c14.8,12.93 -6.07,34.11 -54.97,71.64c-48.36,37.16 -132.73,96.28 -81.64,135.79c51.06,39.48 119.6,-87.95 141.9,-123.51c23.19,-36.92 49.62,-50.04 49.62,-24.65c0,25.4 -38.29,64.9 -10.22,77.6c28.1,12.72 47.26,-43.73 56.2,-56.43c8.92,-12.7 22.98,8.45 22.98,74.78c0,66.33 44.69,64.93 49.79,21.17c5.12,-43.75 -17.86,-90.32 3.84,-101.61c21.71,-11.29 34.47,43.75 66.39,66.33c31.92,22.58 52.36,-21.17 26.83,-43.75c-25.55,-22.58 -66.42,-43.75 -48.53,-60.68c17.88,-16.92 79.16,36.69 120.02,76.19c40.86,39.53 94.49,1.43 84.28,-57.86z" fill="#63C8D3" id="svg_66"/>
       <path d="m493.28,106.02c29.4,6.97 42.05,-22.06 24.53,-47.34c-9.26,-13.36 -31.97,-24.39 -45.64,-12.98c-13.7,11.41 -8.28,53.33 21.11,60.32z" fill="#63C8D3" id="svg_67"/>
       <path d="m671.73,393.18c-0.21,-7.16 -16.14,-29.97 -31.97,-17.42c-15.82,12.58 33.18,56.97 31.97,17.42z" fill="#63C8D3" id="svg_68"/>
       <path d="m192,513.88c2.23,-11.22 -27.65,5.84 -57.64,-11.78c-32.11,-18.85 -61.93,36.05 -15.93,52.95c37.85,13.92 71.51,-30.75 73.57,-41.17z" fill="#63C8D3" id="svg_69"/>
       <path d="m472.02,713.91c-9.81,8.54 -9.79,26.66 -4.21,34.53c5.61,7.86 18.1,7.3 27.91,-1.27c9.83,-8.54 13.25,-21.83 7.67,-29.67c-5.61,-7.86 -21.56,-12.14 -31.37,-3.59z" fill="#63C8D3" id="svg_70"/>
      </g>
      <g id="svg_71">
       <g id="svg_72">
        <path d="m176.32,368.68c18.05,0 28.1,-28.21 10.22,-46.55c-17.88,-18.36 -77.89,-66.33 -52.36,-101.61c25.53,-35.28 60.02,15.52 79.16,60.68c19.16,45.16 61.3,74.78 72.79,47.98c11.49,-26.81 -51.06,-92.74 -28.08,-120.46c22.98,-27.7 48.51,-3.71 53.63,42.86c5.1,46.55 31.9,71.94 51.06,56.43c19.16,-15.52 15.33,-103 31.92,-162.27c16.61,-59.27 66.42,-46.57 71.51,-8.47c5.1,38.1 -54.9,142.53 -29.37,156.63c25.55,14.11 30.65,-68.99 53.63,-57.06c22.98,11.9 -22.98,59.88 -8.94,75.42c14.06,15.52 49.81,-85.93 79.18,-75.42c29.35,10.49 38.29,59.88 -11.49,83.87c-49.81,23.99 -29.37,52.23 12.76,60.7c42.14,8.45 58.73,12.7 56.18,39.5c-2.55,26.81 -40.86,32.44 -62.57,31.03c-21.71,-1.41 -38.29,36.69 1.3,42.34c39.57,5.66 149.38,-4.23 159.59,55.04c10.22,59.27 -43.41,97.36 -84.28,57.84c-40.84,-39.5 -102.14,-93.12 -120.02,-76.19c-17.88,16.92 23,38.1 48.53,60.68c25.53,22.58 5.1,66.33 -26.83,43.75c-31.92,-22.58 -44.69,-77.62 -66.39,-66.33c-21.71,11.29 1.27,57.86 -3.82,101.61c-5.12,43.75 -49.81,45.16 -49.81,-21.17c0,-66.33 -14.04,-87.48 -22.98,-74.78c-8.94,12.7 -28.1,69.15 -56.18,56.43c-28.1,-12.7 10.22,-52.2 10.22,-77.6c0,-25.4 -26.44,-12.28 -49.62,24.65c-22.32,35.56 -90.86,162.99 -141.92,123.51c-51.08,-39.5 33.3,-98.63 81.67,-135.79c48.87,-37.53 69.77,-58.71 54.95,-71.64c-12.53,-10.96 -52.33,25.4 -67.67,22.58c-15.31,-2.82 -38.29,-33.87 0,-46.57c38.32,-12.7 38.32,-26.81 30.65,-39.53c-7.67,-12.7 -155.2,63.35 -165.41,5.49c-10.22,-57.86 44.11,-67.58 88.8,-67.58z" fill="#FFFFFF" id="svg_73"/>
        <g id="svg_74">
         <path d="m99.41,412.59c0,0 -3.95,35.96 30.92,31.99c34.9,-3.97 88.8,-23.64 88.8,-23.64s-114.97,28.45 -119.73,-8.36z" fill="#EBFBFC" id="svg_75"/>
         <path d="m150.16,663.19c0,0 2.87,37.91 30.14,35.04c27.27,-2.86 79.29,-95.16 79.29,-95.16s-63.42,88.16 -109.43,60.11z" fill="#EBFBFC" id="svg_76"/>
         <path d="m334.11,603.07c0,0 1.1,20.26 17.44,16.29c16.33,-3.94 26.17,-49.93 26.17,-49.93s-24.57,45.37 -43.6,33.64z" fill="#EBFBFC" id="svg_77"/>
         <path d="m424.48,673.7c0,0 10.03,20.35 24.57,8.66c14.57,-11.69 0,-94.52 0,-94.52s1.59,82.37 -24.57,85.86z" fill="#EBFBFC" id="svg_78"/>
         <path d="m212,487.42c0,0 -2.38,21.55 19.82,16.29c22.2,-5.26 53.12,-21.03 53.12,-21.03s-69.45,14.69 -72.94,4.74z" fill="#EBFBFC" id="svg_79"/>
         <path d="m150.16,223.33c0,0 -25.36,10.52 -7.12,36.81c18.22,26.29 46.77,55.18 46.77,55.18s-49.17,-70.96 -39.65,-91.99z" fill="#EBFBFC" id="svg_80"/>
         <path d="m259.58,223.33c0,0 17.44,-22.79 29.33,-7.89c11.89,14.88 13.49,53.89 13.49,53.89s-13.49,-45.14 -42.82,-46.01z" fill="#EBFBFC" id="svg_81"/>
         <path d="m395.15,176.88c0,0 11.11,-63.96 39.63,-62.2c28.55,1.76 20.75,26.29 20.75,26.29s-23.92,-24.53 -60.38,35.91z" fill="#EBFBFC" id="svg_82"/>
         <path d="m535.48,263.64c0,0 14.27,-18.4 26.95,-10.52c12.7,7.89 16.65,41.15 -13.47,54.74c0,0 29.33,-61.76 -13.49,-44.22z" fill="#EBFBFC" id="svg_83"/>
         <path d="m553.73,391.56c0,0 48.36,-1.38 49.93,15.52c1.59,16.9 -42.01,31.81 -42.01,31.81s34.11,-21.92 -7.92,-47.32z" fill="#EBFBFC" id="svg_84"/>
         <path d="m645.69,515.1c0,0 42.82,0 53.91,25.42c11.11,25.4 -26.95,66.59 -26.95,66.59s26.12,-73.61 -26.95,-92.01z" fill="#EBFBFC" id="svg_85"/>
         <path d="m540.24,587.84c0,0 34.9,21.01 13.49,44.67c0,0 -5.56,-32.42 -13.49,-44.67z" fill="#EBFBFC" id="svg_86"/>
        </g>
       </g>
       <path d="m509.31,58.65c-9.24,-13.36 -31.94,-24.36 -45.64,-12.96c-13.7,11.41 -8.28,53.33 21.11,60.3c29.4,6.99 42.05,-22.04 24.53,-47.34z" fill="#FFFFFF" id="svg_87"/>
       <path d="m663.24,393.18c-0.21,-7.16 -16.14,-29.97 -31.97,-17.42c-15.82,12.58 33.18,56.97 31.97,17.42z" fill="#FFFFFF" id="svg_88"/>
       <path d="m183.5,513.88c2.23,-11.22 -27.65,5.84 -57.64,-11.78c-32.11,-18.85 -61.93,36.05 -15.93,52.95c37.85,13.92 71.51,-30.75 73.57,-41.17z" fill="#FFFFFF" id="svg_89"/>
       <path d="m494.89,717.48c5.59,7.86 2.17,21.15 -7.67,29.69c-9.81,8.54 -22.3,9.11 -27.91,1.27c-5.59,-7.86 -5.61,-25.98 4.21,-34.53c9.81,-8.54 25.76,-4.27 31.37,3.57z" fill="#FFFFFF" id="svg_90"/>
      </g>
     </g>
     <g id="svg_91">
      <g id="svg_92">
       <path d="m-64.34,905.14c-12.85,-8.57 -40.29,-5.26 -53.44,16.88c-13.17,22.13 0.76,65.18 34.92,52.79c34.15,-12.39 42.84,-53.49 18.52,-69.67z" fill="#63C8D3" id="svg_93"/>
       <path d="m-32.4,1092.34c-11.66,-0.42 -21.64,16.81 -21.94,26.48c-0.3,9.67 8.9,17.86 20.56,18.31c11.68,0.45 21.37,-7.04 21.66,-16.71c0.3,-9.67 -8.6,-27.63 -20.28,-28.07z" fill="#63C8D3" id="svg_94"/>
       <path d="m-616.63,1059.17c9.81,-8.54 13.23,-21.83 7.65,-29.69c-5.61,-7.84 -21.54,-12.14 -31.37,-3.57c-9.81,8.54 -9.79,26.66 -4.18,34.5c5.59,7.86 18.1,7.3 27.91,-1.24z" fill="#63C8D3" id="svg_95"/>
       <path d="m-547.71,890.47c17.4,-6.29 21.81,-27.2 9.43,-35.44c-6.54,-4.34 -20.5,-2.68 -27.19,8.59c-6.71,11.27 0.38,33.17 17.76,26.85z" fill="#63C8D3" id="svg_96"/>
       <path d="m-227.84,898.81c36.19,-3.83 33.71,-67.79 -13.1,-53.89c-38.53,11.43 -44.35,69.22 -40.89,79.17c3.74,10.73 20.18,-21.71 53.99,-25.28z" fill="#63C8D3" id="svg_97"/>
       <path d="m-174.04,1181.96c-49.04,1.6 -72.13,-11.15 -72.13,-43.05c0,-31.88 75.02,-35.07 105.31,-17.53c30.31,17.53 56.26,12.75 59.15,-15.94c2.89,-28.71 -11.53,-58.99 -56.41,-60.58c-44.88,-1.6 -115.27,39.86 -122.47,9.55c-7.22,-30.28 73.57,-39.86 100.97,-52.6c27.42,-12.77 35.66,-58.71 -10.09,-68.56c-44.5,-9.58 -88,62.18 -119.75,97.25c-31.73,35.09 -53.37,-6.36 -46.15,-63.75c7.2,-57.41 21.64,-164.21 -41.84,-154.66c-63.46,9.58 -10.09,108.42 4.33,180.15c14.42,71.76 -41.84,84.5 -64.91,60.58c-23.09,-23.92 -44.39,-143.25 -89.44,-134.17c-30.82,6.2 -27.42,49.67 14.42,83.16c41.82,33.47 75.02,121.17 54.82,140.3c-20.2,19.13 -34.62,-15.94 -66.37,-57.39c-31.73,-41.45 -79.33,-19.13 -70.68,22.32c8.67,41.43 85.13,41.43 86.57,68.54c1.42,27.11 -13,33.5 -54.82,-3.19c-41.84,-36.66 -108.22,-46.22 -116.86,0c-8.67,46.24 25.95,54.22 67.8,35.09c41.84,-19.13 92.33,17.53 98.11,49.41c5.76,31.9 18.75,52.63 40.4,57.39c0,0 138.48,12.77 197.63,1.6c59.15,-11.15 5.76,-81.31 54.82,-106.8c49.04,-25.51 121.06,88.98 154.35,22.32c15.04,-30.14 -57.71,-51.03 -106.75,-49.43z" fill="#63C8D3" id="svg_98"/>
      </g>
      <g id="svg_99">
       <path d="m-68.59,905.14c-12.85,-8.57 -40.29,-5.26 -53.44,16.88c-13.17,22.13 0.76,65.18 34.92,52.79c34.15,-12.39 42.84,-53.49 18.52,-69.67z" fill="#FFFFFF" id="svg_100"/>
       <g id="svg_101">
        <g id="svg_102">
         <path d="m-58.59,1118.81c0.3,-9.67 10.3,-26.9 21.94,-26.45c11.68,0.42 20.58,18.38 20.28,28.05c-0.3,9.67 -9.98,17.16 -21.66,16.71c-11.66,-0.45 -20.86,-8.64 -20.56,-18.31z" fill="#FFFFFF" id="svg_103"/>
         <path d="m-613.23,1029.48c5.59,7.86 2.17,21.15 -7.65,29.69c-9.81,8.54 -22.32,9.11 -27.91,1.24c-5.61,-7.84 -5.63,-25.98 4.18,-34.53c9.83,-8.54 25.76,-4.27 31.37,3.59z" fill="#FFFFFF" id="svg_104"/>
         <path d="m-542.53,855.03c-6.54,-4.34 -20.5,-2.68 -27.19,8.59c-6.71,11.27 0.38,33.17 17.76,26.85c17.4,-6.29 21.81,-27.2 9.43,-35.44z" fill="#FFFFFF" id="svg_105"/>
         <path d="m-286.08,924.09c3.74,10.73 20.18,-21.71 53.99,-25.28c36.19,-3.83 33.71,-67.79 -13.1,-53.89c-38.53,11.43 -44.35,69.22 -40.89,79.17z" fill="#FFFFFF" id="svg_106"/>
        </g>
        <g id="svg_107">
         <path d="m-478.36,1314.27c-21.62,-4.76 -34.62,-25.49 -40.4,-57.39c-5.76,-31.88 -56.24,-68.54 -98.08,-49.41c-41.84,19.13 -76.46,11.15 -67.8,-35.09c8.64,-46.22 75,-36.66 116.84,0c41.84,36.69 56.26,30.3 54.82,3.19c-1.44,-27.09 -77.91,-27.09 -86.55,-68.54c-8.67,-41.45 38.95,-63.78 70.68,-22.32c31.73,41.45 46.17,76.52 66.35,57.39c20.2,-19.13 -12.98,-106.82 -54.82,-140.3c-41.82,-33.5 -45.22,-76.97 -14.42,-83.16c45.05,-9.08 66.37,110.25 89.44,134.17c23.09,23.92 79.35,11.17 64.93,-60.58c-14.42,-71.73 -67.82,-170.58 -4.33,-180.15c63.48,-9.55 49.04,97.25 41.84,154.66c-7.22,57.39 14.42,98.84 46.15,63.75c31.73,-35.07 75.25,-106.82 119.75,-97.25c45.75,9.86 37.51,55.82 10.09,68.56c-27.4,12.75 -108.19,22.32 -100.97,52.6c7.2,30.3 77.59,-11.15 122.47,-9.55c44.86,1.6 59.3,31.88 56.41,60.58c-2.89,28.68 -28.86,33.47 -59.15,15.94c-30.29,-17.53 -105.31,-14.34 -105.31,17.53c0,31.9 23.07,44.64 72.13,43.05c49.04,-1.6 121.79,19.29 106.75,49.43c-33.28,66.66 -105.31,-47.84 -154.37,-22.32c-49.04,25.49 4.33,95.65 -54.82,106.8c-59.13,11.17 -197.63,-1.6 -197.63,-1.6z" fill="#FFFFFF" id="svg_108"/>
         <g id="svg_109">
          <path d="m-672.98,1199.47c0,0 -12.83,-34.83 12.74,-46.17c25.57,-11.31 58.75,18 58.75,18s-64.42,-25.05 -71.49,28.17z" fill="#EBFBFC" id="svg_110"/>
          <path d="m-589.79,1110.67c0,0 -5.05,-35.87 21.24,-37.56c26.29,-1.71 46,37.56 46,37.56s-51.29,-38.4 -67.24,0z" fill="#EBFBFC" id="svg_111"/>
          <path d="m-545.9,950.26c0,0 2.42,-27.82 26.21,-18.78c23.77,9.06 25.49,45.51 25.49,45.51s-31.86,-42.37 -51.7,-26.74z" fill="#EBFBFC" id="svg_112"/>
          <path d="m-401.48,842.94c0,0 8.5,-24.9 32.56,-15.52c24.09,9.39 19.12,82.93 19.12,82.93s-14.85,-81.64 -51.68,-67.41z" fill="#EBFBFC" id="svg_113"/>
          <path d="m-223.77,971.38c0,0 32.56,-34.41 55.22,-22.67s6.37,41.45 6.37,41.45s-7.09,-37.56 -61.59,-18.78z" fill="#EBFBFC" id="svg_114"/>
          <path d="m-172.09,1061.38c0,0 55.22,-7.16 66.54,11.67c11.34,18.85 -8.5,41.69 -8.5,41.69s0.21,-55.42 -58.05,-53.35z" fill="#EBFBFC" id="svg_115"/>
          <path d="m-146.94,1199.47c0,0 59.81,4.3 60.53,20.73s-20.62,19.58 -20.62,19.58s-2.4,-27.79 -39.91,-40.3z" fill="#EBFBFC" id="svg_116"/>
         </g>
        </g>
       </g>
      </g>
     </g>
     <g id="svg_117">
      <g id="svg_118">
       <path d="m280.18,856.7c11.89,-10.35 16.06,-26.45 9.26,-35.98c-6.78,-9.53 -26.1,-14.69 -38,-4.34c-11.89,10.35 -11.87,32.32 -5.1,41.85c6.8,9.53 21.94,8.85 33.83,-1.53z" fill="#63C8D3" id="svg_119"/>
       <path d="m192.27,985.96c6.75,6.15 16.76,5.07 22.3,-2.39c5.56,-7.49 4.59,-18.52 -2.17,-24.67c-6.78,-6.15 -23.6,-11.27 -29.16,-3.78c-5.54,7.46 2.25,24.72 9.03,30.84z" fill="#63C8D3" id="svg_120"/>
       <path d="m478.24,909.72c11.66,0.45 21.37,-7.04 21.66,-16.71c0.3,-9.67 -8.62,-27.63 -20.28,-28.05c-11.66,-0.45 -21.64,16.78 -21.94,26.45c-0.3,9.67 8.9,17.86 20.56,18.31z" fill="#63C8D3" id="svg_121"/>
       <path d="m688.66,1077.43c27.02,-7.91 -18.12,-95.06 -34.81,-41.38c-3.02,9.69 7.77,49.27 34.81,41.38z" fill="#63C8D3" id="svg_122"/>
       <path d="m753.57,1206.58c-2.93,-11.01 -20.58,-14.98 -28.99,-12.25c-8.39,2.72 -12.85,13.83 -9.92,24.83c2.91,11.01 12.09,17.75 20.47,15.02c8.41,-2.72 21.35,-16.6 18.44,-27.6z" fill="#63C8D3" id="svg_123"/>
       <path d="m660.5,1135.2c-26.17,-4.25 -38.55,-36.36 -51.87,-96.14c-13.32,-59.76 -66.12,-44.11 -94.9,-57.04c-28.8,-12.93 -39.46,-62.74 -71.56,-61.31c-32.09,1.41 -52.14,46.48 -75.57,23.1c-23.45,-23.38 -29.71,-98.56 -69.69,-74.92c-39.95,23.66 -11.64,75.91 -5.37,107.06c6.27,31.17 -8.07,44.62 -30.01,24.69c-21.92,-19.93 -39.48,3.64 -30.05,28.92c9.41,25.28 10.68,51.08 -6.73,56.5c-17.42,5.45 -47.7,-20.59 -60.74,9.01c-13.06,29.6 13.66,38.59 36.32,50.56c22.68,11.97 17.16,40.51 22.15,74.88c1.61,11.17 5.14,20.07 9.71,26.97c-4.57,-46.08 6.41,-94.08 34.2,-133.56c56.69,-80.58 161.76,-95.09 234.65,-32.44c71.3,61.29 85.4,173.67 32.94,253.95c31.73,-2.21 69.54,-26.64 81.11,-55.61c23.87,-59.74 -20.64,-81.12 -6.05,-92.2c14.59,-11.08 64.72,40.58 87.12,1.85c22.41,-38.73 -9.49,-50.04 -35.66,-54.27z" fill="#63C8D3" id="svg_124"/>
      </g>
      <g id="svg_125">
       <g id="svg_126">
        <path d="m280.95,820.71c6.8,9.53 2.63,25.63 -9.26,35.98c-11.89,10.37 -27.04,11.06 -33.83,1.53c-6.78,-9.51 -6.8,-31.5 5.1,-41.85c11.89,-10.35 31.22,-5.19 38,4.34z" fill="#FFFFFF" id="svg_127"/>
        <path d="m183.78,985.96c-6.78,-6.13 -14.57,-23.38 -9.03,-30.84c5.56,-7.49 22.39,-2.37 29.16,3.78c6.75,6.15 7.73,17.18 2.17,24.65c-5.56,7.49 -15.55,8.57 -22.3,2.42z" fill="#FFFFFF" id="svg_128"/>
        <path d="m449.19,891.41c0.3,-9.67 10.28,-26.9 21.94,-26.45c11.66,0.42 20.58,18.38 20.28,28.05c-0.32,9.67 -10,17.16 -21.66,16.71c-11.66,-0.45 -20.86,-8.64 -20.56,-18.31z" fill="#FFFFFF" id="svg_129"/>
        <path d="m645.35,1036.05c-3.02,9.69 7.77,49.27 34.81,41.38c27.02,-7.91 -18.12,-95.06 -34.81,-41.38z" fill="#FFFFFF" id="svg_130"/>
        <path d="m716.1,1194.33c8.39,-2.72 26.04,1.24 28.97,12.25c2.91,11.01 -10.03,24.88 -18.44,27.6c-8.39,2.72 -17.57,-3.99 -20.47,-15.02c-2.91,-11.01 1.53,-22.11 9.94,-24.83z" fill="#FFFFFF" id="svg_131"/>
       </g>
       <g id="svg_132">
        <path d="m505.24,982.02c-28.8,-12.93 -39.46,-62.72 -71.56,-61.31c-32.09,1.41 -52.14,46.48 -75.57,23.1c-23.45,-23.38 -29.71,-98.56 -69.69,-74.92c-39.95,23.66 -11.64,75.91 -5.37,107.06c6.27,31.17 -8.07,44.62 -30.01,24.69c-21.92,-19.93 -39.48,3.64 -30.05,28.92c9.41,25.28 10.68,51.08 -6.73,56.5c-17.42,5.45 -47.7,-20.59 -60.74,9.01c-13.06,29.6 13.66,38.59 36.32,50.56c22.68,11.97 17.16,40.51 22.15,74.88c1.61,11.17 5.14,20.07 9.71,26.99c-4.57,-46.1 6.41,-94.1 34.2,-133.58c56.69,-80.58 161.76,-95.09 234.65,-32.44c71.3,61.29 85.4,173.67 32.94,253.95c31.73,-2.21 69.54,-26.64 81.11,-55.61c23.87,-59.74 -20.64,-81.12 -6.05,-92.2c14.59,-11.08 64.72,40.61 87.12,1.85c22.41,-38.73 -9.49,-50.02 -35.66,-54.27c-26.17,-4.25 -38.55,-36.36 -51.87,-96.14c-13.32,-59.76 -66.12,-44.11 -94.9,-57.04z" fill="#FFFFFF" id="svg_133"/>
        <g id="svg_134">
         <path d="m296.81,973.66c0,0 -46.85,-74.88 4.65,-97.46c0,0 -25.53,44.13 -4.65,97.46z" fill="#EBFBFC" id="svg_135"/>
         <path d="m198.43,1135.71c0,0 -46.39,-7.18 -28.29,-48.21c0,0 3.7,37.44 28.29,48.21z" fill="#EBFBFC" id="svg_136"/>
         <path d="m390.1,956.22c0,0 22.28,-23.59 43.63,-23.59c21.35,0 46.41,48.73 46.41,48.73s-49.66,-31.81 -90.03,-25.14z" fill="#EBFBFC" id="svg_137"/>
         <path d="m529.79,998.78c0,0 37.13,-3.07 47.79,15.91c10.68,18.97 21.35,71.8 21.35,71.8s-32.03,-81.03 -69.13,-87.72z" fill="#EBFBFC" id="svg_138"/>
         <path d="m644.87,1144.94c0,0 36.66,5.66 37.13,23.59c0.47,17.96 -23.19,24.97 -23.19,24.97s9.24,-36.24 -13.93,-48.56z" fill="#EBFBFC" id="svg_139"/>
        </g>
       </g>
      </g>
     </g>
    </g>
   </g>
  </g>
 </g>
</svg>