<?xml version="1.0"?>
<svg width="800" height="800" xmlns="http://www.w3.org/2000/svg" xmlns:svg="http://www.w3.org/2000/svg" enable-background="new 0 0 800 800" version="1.1" xml:space="preserve">
 <g class="layer">
  <title>Layer 1</title>
  <g id="DESIGNED_BY_FREEPIK">
   <g id="svg_2">
    <g id="svg_3">
     <path d="m288.49,776.35l0,-0.26c-0.35,0.4 -0.69,0.73 -1.03,0.97c-0.34,0.26 -0.7,0.45 -1.1,0.57c-0.4,0.14 -0.83,0.2 -1.3,0.2c-0.62,0 -1.19,-0.13 -1.72,-0.39c-0.53,-0.27 -0.99,-0.64 -1.37,-1.13c-0.39,-0.49 -0.68,-1.06 -0.88,-1.72c-0.2,-0.66 -0.3,-1.37 -0.3,-2.14c0,-1.62 0.39,-2.88 1.19,-3.79c0.79,-0.9 1.83,-1.35 3.12,-1.35c0.75,0 1.38,0.12 1.89,0.38c0.51,0.26 1.01,0.65 1.5,1.18l0,-3.82c0,-0.54 0.11,-0.94 0.32,-1.21c0.21,-0.27 0.51,-0.41 0.91,-0.41s0.69,0.13 0.9,0.38c0.21,0.25 0.32,0.62 0.32,1.1l0,11.44c0,0.49 -0.11,0.86 -0.34,1.11c-0.23,0.25 -0.52,0.37 -0.89,0.37c-0.35,0 -0.64,-0.13 -0.87,-0.38c-0.23,-0.26 -0.35,-0.63 -0.35,-1.1zm-5.1,-3.81c0,0.7 0.11,1.3 0.33,1.8c0.22,0.49 0.52,0.86 0.9,1.11c0.38,0.25 0.79,0.38 1.24,0.38c0.46,0 0.87,-0.12 1.25,-0.36c0.38,-0.23 0.68,-0.6 0.9,-1.09c0.23,-0.49 0.34,-1.11 0.34,-1.84c0,-0.69 -0.11,-1.28 -0.34,-1.78c-0.22,-0.5 -0.53,-0.88 -0.91,-1.14c-0.38,-0.26 -0.8,-0.39 -1.26,-0.39c-0.47,0 -0.9,0.13 -1.27,0.4c-0.38,0.27 -0.67,0.65 -0.87,1.16c-0.21,0.5 -0.31,1.09 -0.31,1.75z" fill="#FFFFFF" id="svg_4"/>
     <path d="m299.93,773.2l-5.07,0c0,0.58 0.12,1.1 0.35,1.55c0.23,0.45 0.54,0.79 0.92,1.02c0.39,0.23 0.81,0.34 1.27,0.34c0.31,0 0.6,-0.03 0.85,-0.11c0.26,-0.07 0.51,-0.18 0.75,-0.34c0.24,-0.15 0.46,-0.32 0.66,-0.5c0.2,-0.18 0.47,-0.42 0.79,-0.72c0.13,-0.11 0.32,-0.17 0.57,-0.17c0.27,0 0.48,0.07 0.64,0.22c0.17,0.15 0.25,0.35 0.25,0.62c0,0.23 -0.09,0.5 -0.27,0.82c-0.19,0.31 -0.46,0.61 -0.83,0.9c-0.37,0.29 -0.84,0.53 -1.4,0.71c-0.56,0.2 -1.2,0.29 -1.93,0.29c-1.67,0 -2.96,-0.48 -3.89,-1.42c-0.92,-0.95 -1.38,-2.24 -1.38,-3.87c0,-0.77 0.11,-1.48 0.34,-2.13c0.23,-0.66 0.56,-1.22 0.99,-1.69c0.44,-0.47 0.98,-0.83 1.62,-1.08c0.64,-0.25 1.35,-0.37 2.13,-0.37c1.01,0 1.88,0.21 2.6,0.64c0.73,0.43 1.27,0.98 1.63,1.66c0.36,0.67 0.54,1.37 0.54,2.07c0,0.65 -0.18,1.07 -0.56,1.27c-0.37,0.19 -0.9,0.29 -1.57,0.29zm-5.07,-1.47l4.7,0c-0.07,-0.89 -0.31,-1.56 -0.72,-1.99c-0.42,-0.45 -0.96,-0.66 -1.64,-0.66c-0.65,0 -1.18,0.22 -1.59,0.66c-0.42,0.45 -0.67,1.11 -0.75,1.99z" fill="#FFFFFF" id="svg_5"/>
     <path d="m311.74,774.44c0,0.72 -0.17,1.33 -0.52,1.84c-0.35,0.51 -0.86,0.9 -1.54,1.16c-0.69,0.26 -1.51,0.39 -2.49,0.39c-0.93,0 -1.73,-0.14 -2.39,-0.43c-0.67,-0.28 -1.16,-0.64 -1.47,-1.06c-0.32,-0.43 -0.48,-0.86 -0.48,-1.29c0,-0.29 0.1,-0.53 0.31,-0.73c0.2,-0.2 0.46,-0.31 0.77,-0.31c0.27,0 0.47,0.07 0.62,0.2c0.15,0.14 0.29,0.32 0.42,0.56c0.27,0.47 0.58,0.81 0.95,1.04c0.37,0.23 0.88,0.34 1.52,0.34c0.52,0 0.94,-0.12 1.28,-0.35c0.33,-0.23 0.49,-0.49 0.49,-0.79c0,-0.46 -0.17,-0.79 -0.51,-1c-0.35,-0.2 -0.92,-0.4 -1.71,-0.6c-0.89,-0.22 -1.62,-0.45 -2.18,-0.69c-0.56,-0.25 -1,-0.57 -1.34,-0.97c-0.34,-0.39 -0.51,-0.89 -0.51,-1.47c0,-0.52 0.16,-1.01 0.47,-1.47c0.31,-0.46 0.77,-0.83 1.37,-1.11c0.61,-0.27 1.34,-0.41 2.19,-0.41c0.67,0 1.28,0.07 1.81,0.21c0.54,0.14 0.98,0.33 1.34,0.56c0.36,0.23 0.63,0.49 0.82,0.78c0.19,0.28 0.28,0.56 0.28,0.83c0,0.3 -0.1,0.54 -0.3,0.74c-0.2,0.18 -0.48,0.28 -0.85,0.28c-0.27,0 -0.49,-0.08 -0.68,-0.23c-0.19,-0.15 -0.4,-0.38 -0.64,-0.68c-0.2,-0.26 -0.43,-0.46 -0.69,-0.61c-0.27,-0.15 -0.63,-0.23 -1.09,-0.23c-0.47,0 -0.86,0.1 -1.17,0.3c-0.31,0.2 -0.46,0.45 -0.46,0.74c0,0.28 0.11,0.5 0.34,0.67c0.23,0.18 0.53,0.32 0.92,0.44c0.39,0.11 0.92,0.25 1.6,0.41c0.8,0.2 1.46,0.44 1.97,0.71c0.51,0.27 0.89,0.59 1.16,0.96c0.26,0.37 0.39,0.8 0.39,1.27z" fill="#FFFFFF" id="svg_6"/>
     <path d="m314.39,766.08c-0.36,0 -0.67,-0.11 -0.92,-0.33c-0.26,-0.22 -0.39,-0.53 -0.39,-0.94c0,-0.37 0.13,-0.67 0.39,-0.91c0.27,-0.24 0.57,-0.35 0.92,-0.35c0.34,0 0.63,0.1 0.89,0.32c0.26,0.22 0.39,0.53 0.39,0.94c0,0.4 -0.12,0.71 -0.38,0.94c-0.25,0.22 -0.55,0.33 -0.9,0.33zm1.28,2.68l0,7.49c0,0.52 -0.12,0.92 -0.37,1.18c-0.24,0.27 -0.56,0.4 -0.94,0.4c-0.38,0 -0.69,-0.13 -0.92,-0.41c-0.24,-0.27 -0.36,-0.66 -0.36,-1.17l0,-7.41c0,-0.52 0.12,-0.9 0.36,-1.16c0.23,-0.26 0.54,-0.39 0.92,-0.39c0.38,0 0.7,0.13 0.94,0.39c0.25,0.26 0.37,0.62 0.37,1.08z" fill="#FFFFFF" id="svg_7"/>
     <path d="m327.03,769.19l0,7.53c0,0.86 -0.09,1.6 -0.28,2.22c-0.18,0.62 -0.47,1.14 -0.88,1.54c-0.4,0.4 -0.93,0.71 -1.59,0.9c-0.65,0.2 -1.47,0.3 -2.44,0.3c-0.9,0 -1.69,-0.13 -2.4,-0.38c-0.7,-0.25 -1.24,-0.57 -1.62,-0.97c-0.38,-0.39 -0.57,-0.8 -0.57,-1.22c0,-0.31 0.11,-0.57 0.32,-0.77c0.22,-0.2 0.48,-0.3 0.78,-0.3c0.38,0 0.71,0.17 1,0.5c0.14,0.17 0.28,0.35 0.43,0.52c0.15,0.18 0.31,0.32 0.49,0.45c0.18,0.12 0.4,0.21 0.65,0.27c0.26,0.06 0.55,0.09 0.88,0.09c0.67,0 1.19,-0.09 1.56,-0.28c0.37,-0.18 0.63,-0.45 0.78,-0.78c0.15,-0.34 0.23,-0.69 0.26,-1.08c0.03,-0.38 0.04,-1 0.06,-1.85c-0.4,0.56 -0.86,0.98 -1.39,1.28c-0.52,0.29 -1.14,0.43 -1.86,0.43c-0.87,0 -1.63,-0.22 -2.28,-0.66c-0.64,-0.45 -1.14,-1.07 -1.49,-1.86c-0.35,-0.8 -0.52,-1.72 -0.52,-2.77c0,-0.78 0.1,-1.48 0.31,-2.1c0.22,-0.63 0.52,-1.16 0.91,-1.59c0.39,-0.43 0.85,-0.76 1.36,-0.98c0.51,-0.21 1.07,-0.32 1.69,-0.32c0.73,0 1.37,0.14 1.91,0.42c0.54,0.28 1.04,0.72 1.5,1.32l0,-0.35c0,-0.45 0.11,-0.79 0.33,-1.04c0.22,-0.25 0.51,-0.37 0.86,-0.37c0.5,0 0.83,0.16 0.99,0.49c0.17,0.32 0.25,0.79 0.25,1.41zm-7.51,3.29c0,1.05 0.23,1.84 0.69,2.38c0.46,0.54 1.05,0.81 1.78,0.81c0.43,0 0.83,-0.12 1.22,-0.35c0.38,-0.23 0.69,-0.58 0.93,-1.05c0.24,-0.46 0.36,-1.02 0.36,-1.69c0,-1.06 -0.23,-1.88 -0.69,-2.47c-0.47,-0.59 -1.08,-0.88 -1.84,-0.88c-0.74,0 -1.34,0.28 -1.78,0.84c-0.45,0.56 -0.67,1.36 -0.67,2.41z" fill="#FFFFFF" id="svg_8"/>
     <path d="m331.15,768.72l0,0.32c0.46,-0.61 0.95,-1.05 1.5,-1.33c0.54,-0.28 1.16,-0.42 1.86,-0.42c0.69,0 1.3,0.15 1.84,0.45c0.53,0.29 0.94,0.71 1.2,1.26c0.17,0.31 0.28,0.66 0.33,1.02c0.05,0.37 0.08,0.84 0.08,1.41l0,4.82c0,0.52 -0.12,0.92 -0.36,1.18c-0.23,0.27 -0.54,0.4 -0.92,0.4c-0.39,0 -0.7,-0.14 -0.94,-0.41c-0.24,-0.27 -0.36,-0.66 -0.36,-1.17l0,-4.32c0,-0.85 -0.12,-1.51 -0.36,-1.96c-0.23,-0.45 -0.71,-0.68 -1.42,-0.68c-0.46,0 -0.88,0.14 -1.26,0.41c-0.38,0.28 -0.66,0.66 -0.84,1.14c-0.12,0.39 -0.19,1.11 -0.19,2.17l0,3.24c0,0.53 -0.12,0.92 -0.36,1.19c-0.24,0.26 -0.56,0.39 -0.95,0.39c-0.37,0 -0.68,-0.13 -0.92,-0.41c-0.24,-0.27 -0.36,-0.66 -0.36,-1.17l0,-7.49c0,-0.49 0.11,-0.86 0.32,-1.11c0.22,-0.24 0.51,-0.36 0.89,-0.36c0.23,0 0.43,0.05 0.62,0.16c0.18,0.11 0.33,0.27 0.44,0.48c0.11,0.22 0.16,0.48 0.16,0.79z" fill="#FFFFFF" id="svg_9"/>
     <path d="m346.93,773.2l-5.07,0c0,0.58 0.12,1.1 0.35,1.55c0.23,0.45 0.54,0.79 0.92,1.02c0.39,0.23 0.81,0.34 1.27,0.34c0.31,0 0.6,-0.03 0.85,-0.11c0.26,-0.07 0.51,-0.18 0.75,-0.34c0.24,-0.15 0.46,-0.32 0.66,-0.5c0.2,-0.18 0.47,-0.42 0.79,-0.72c0.13,-0.11 0.32,-0.17 0.57,-0.17c0.27,0 0.48,0.07 0.65,0.22c0.16,0.15 0.24,0.35 0.24,0.62c0,0.23 -0.09,0.5 -0.27,0.82c-0.19,0.31 -0.46,0.61 -0.83,0.9c-0.38,0.29 -0.84,0.53 -1.4,0.71c-0.56,0.2 -1.2,0.29 -1.93,0.29c-1.67,0 -2.97,-0.48 -3.89,-1.42c-0.92,-0.95 -1.39,-2.24 -1.39,-3.87c0,-0.77 0.12,-1.48 0.35,-2.13c0.22,-0.66 0.56,-1.22 0.99,-1.69c0.44,-0.47 0.98,-0.83 1.62,-1.08c0.64,-0.25 1.35,-0.37 2.13,-0.37c1.01,0 1.88,0.21 2.6,0.64c0.73,0.43 1.27,0.98 1.63,1.66c0.36,0.67 0.54,1.37 0.54,2.07c0,0.65 -0.18,1.07 -0.56,1.27c-0.37,0.19 -0.89,0.29 -1.57,0.29zm-5.07,-1.47l4.7,0c-0.07,-0.89 -0.31,-1.56 -0.72,-1.99c-0.42,-0.45 -0.96,-0.66 -1.64,-0.66c-0.65,0 -1.18,0.22 -1.59,0.66c-0.42,0.45 -0.67,1.11 -0.75,1.99z" fill="#FFFFFF" id="svg_10"/>
     <path d="m357.5,776.35l0,-0.26c-0.35,0.4 -0.69,0.73 -1.03,0.97c-0.34,0.26 -0.71,0.45 -1.1,0.57c-0.4,0.14 -0.83,0.2 -1.3,0.2c-0.62,0 -1.2,-0.13 -1.73,-0.39c-0.52,-0.27 -0.98,-0.64 -1.37,-1.13c-0.39,-0.49 -0.68,-1.06 -0.88,-1.72c-0.2,-0.66 -0.3,-1.37 -0.3,-2.14c0,-1.62 0.4,-2.88 1.19,-3.79c0.79,-0.9 1.83,-1.35 3.12,-1.35c0.75,0 1.38,0.12 1.9,0.38c0.51,0.26 1.01,0.65 1.5,1.18l0,-3.82c0,-0.54 0.1,-0.94 0.31,-1.21c0.22,-0.27 0.52,-0.41 0.91,-0.41c0.39,0 0.69,0.13 0.91,0.38c0.21,0.25 0.32,0.62 0.32,1.1l0,11.44c0,0.49 -0.12,0.86 -0.35,1.11c-0.22,0.25 -0.52,0.37 -0.88,0.37c-0.35,0 -0.65,-0.13 -0.88,-0.38c-0.23,-0.26 -0.34,-0.63 -0.34,-1.1zm-5.1,-3.81c0,0.7 0.1,1.3 0.32,1.8c0.22,0.49 0.52,0.86 0.9,1.11c0.38,0.25 0.8,0.38 1.24,0.38c0.46,0 0.88,-0.12 1.25,-0.36c0.38,-0.23 0.68,-0.6 0.91,-1.09c0.22,-0.49 0.33,-1.11 0.33,-1.84c0,-0.69 -0.11,-1.28 -0.33,-1.78c-0.23,-0.5 -0.53,-0.88 -0.92,-1.14c-0.38,-0.26 -0.8,-0.39 -1.26,-0.39c-0.47,0 -0.89,0.13 -1.27,0.4c-0.37,0.27 -0.66,0.65 -0.87,1.16c-0.2,0.5 -0.3,1.09 -0.3,1.75z" fill="#FFFFFF" id="svg_11"/>
     <path d="m368.09,764.91l0,3.96c0.49,-0.5 0.99,-0.89 1.5,-1.16c0.5,-0.27 1.13,-0.4 1.88,-0.4c0.86,0 1.61,0.2 2.26,0.61c0.65,0.41 1.15,1 1.51,1.77c0.36,0.78 0.54,1.7 0.54,2.76c0,0.79 -0.1,1.51 -0.3,2.16c-0.2,0.66 -0.49,1.23 -0.87,1.71c-0.38,0.48 -0.84,0.85 -1.38,1.12c-0.54,0.26 -1.14,0.39 -1.79,0.39c-0.4,0 -0.78,-0.05 -1.13,-0.14c-0.35,-0.1 -0.65,-0.22 -0.9,-0.38c-0.24,-0.15 -0.45,-0.31 -0.63,-0.48c-0.17,-0.16 -0.4,-0.41 -0.69,-0.74l0,0.26c0,0.48 -0.11,0.85 -0.35,1.11c-0.23,0.25 -0.53,0.37 -0.89,0.37c-0.37,0 -0.66,-0.12 -0.88,-0.37c-0.22,-0.26 -0.32,-0.63 -0.32,-1.11l0,-11.32c0,-0.53 0.1,-0.93 0.31,-1.19c0.21,-0.27 0.51,-0.41 0.89,-0.41c0.4,0 0.71,0.13 0.92,0.39c0.22,0.25 0.32,0.62 0.32,1.09zm0.13,7.71c0,1.03 0.23,1.82 0.71,2.37c0.47,0.56 1.09,0.84 1.85,0.84c0.65,0 1.22,-0.29 1.69,-0.85c0.47,-0.57 0.71,-1.38 0.71,-2.44c0,-0.68 -0.1,-1.27 -0.3,-1.77c-0.19,-0.49 -0.47,-0.87 -0.83,-1.14c-0.36,-0.27 -0.79,-0.4 -1.27,-0.4c-0.49,0 -0.93,0.13 -1.32,0.4c-0.38,0.27 -0.69,0.66 -0.91,1.17c-0.22,0.51 -0.33,1.11 -0.33,1.82z" fill="#FFFFFF" id="svg_12"/>
     <path d="m379.14,778.15l0.24,-0.58l-3.19,-8.03c-0.2,-0.46 -0.3,-0.8 -0.3,-1.01c0,-0.22 0.06,-0.43 0.17,-0.61c0.12,-0.2 0.27,-0.35 0.47,-0.46c0.2,-0.12 0.41,-0.17 0.62,-0.17c0.38,0 0.66,0.12 0.85,0.35c0.19,0.24 0.36,0.58 0.5,1.02l2.2,6.39l2.08,-5.94c0.16,-0.48 0.31,-0.86 0.44,-1.13c0.14,-0.27 0.28,-0.46 0.43,-0.55c0.14,-0.1 0.35,-0.14 0.63,-0.14c0.2,0 0.38,0.05 0.56,0.15c0.18,0.11 0.32,0.25 0.42,0.43c0.1,0.17 0.15,0.36 0.15,0.56c-0.03,0.12 -0.07,0.29 -0.13,0.51c-0.05,0.22 -0.12,0.45 -0.2,0.67l-3.39,8.86c-0.29,0.78 -0.57,1.39 -0.85,1.83c-0.28,0.44 -0.65,0.78 -1.11,1.02c-0.46,0.24 -1.07,0.36 -1.85,0.36c-0.76,0 -1.33,-0.09 -1.71,-0.25c-0.38,-0.17 -0.57,-0.47 -0.57,-0.9c0,-0.3 0.09,-0.53 0.27,-0.69c0.18,-0.16 0.45,-0.25 0.8,-0.25c0.14,0 0.28,0.02 0.41,0.06c0.16,0.04 0.31,0.06 0.43,0.06c0.29,0 0.53,-0.04 0.7,-0.13c0.17,-0.09 0.32,-0.24 0.46,-0.46c0.14,-0.22 0.29,-0.54 0.47,-0.97z" fill="#FFFFFF" id="svg_13"/>
    </g>
    <g id="svg_14">
     <path d="m416.7,767.51l0.62,0l0,-0.78c0,-0.81 0.1,-1.45 0.31,-1.93c0.2,-0.48 0.55,-0.83 1.05,-1.05c0.49,-0.22 1.16,-0.32 2.01,-0.32c1.52,0 2.28,0.36 2.28,1.11c0,0.24 -0.08,0.44 -0.24,0.61c-0.16,0.17 -0.35,0.26 -0.56,0.26c-0.1,0 -0.28,-0.02 -0.53,-0.06c-0.24,-0.03 -0.45,-0.06 -0.62,-0.06c-0.47,0 -0.77,0.14 -0.91,0.42c-0.12,0.28 -0.19,0.67 -0.19,1.18l0,0.62l0.63,0c0.99,0 1.48,0.3 1.48,0.9c0,0.41 -0.13,0.69 -0.39,0.8c-0.26,0.11 -0.63,0.17 -1.09,0.17l-0.63,0l0,6.87c0,0.51 -0.12,0.9 -0.37,1.17c-0.24,0.27 -0.56,0.41 -0.95,0.41c-0.36,0 -0.67,-0.14 -0.91,-0.41c-0.25,-0.27 -0.37,-0.66 -0.37,-1.17l0,-6.87l-0.71,0c-0.39,0 -0.68,-0.08 -0.89,-0.26c-0.21,-0.17 -0.32,-0.4 -0.32,-0.68c0,-0.62 0.43,-0.93 1.3,-0.93" fill="#FFFFFF" id="svg_15"/>
     <path d="m425.19,774.09l0,2.16c0,0.53 -0.13,0.92 -0.37,1.18c-0.25,0.27 -0.56,0.4 -0.94,0.4c-0.38,0 -0.69,-0.13 -0.93,-0.4c-0.23,-0.27 -0.36,-0.66 -0.36,-1.18l0,-7.22c0,-1.16 0.42,-1.75 1.27,-1.75c0.43,0 0.74,0.14 0.93,0.41c0.19,0.28 0.29,0.68 0.32,1.21c0.3,-0.53 0.62,-0.93 0.94,-1.21c0.34,-0.27 0.77,-0.41 1.31,-0.41c0.55,0 1.08,0.14 1.59,0.41c0.52,0.28 0.77,0.64 0.77,1.09c0,0.31 -0.11,0.58 -0.32,0.78c-0.23,0.21 -0.46,0.31 -0.71,0.31c-0.1,0 -0.33,-0.06 -0.69,-0.18c-0.37,-0.11 -0.69,-0.17 -0.97,-0.17c-0.38,0 -0.69,0.1 -0.93,0.29c-0.24,0.21 -0.43,0.5 -0.56,0.89c-0.13,0.4 -0.22,0.87 -0.28,1.41c-0.05,0.54 -0.07,1.2 -0.07,1.98" fill="#FFFFFF" id="svg_16"/>
     <path d="m437.11,773.19l-5.07,0c0.01,0.59 0.12,1.11 0.35,1.56c0.24,0.45 0.54,0.79 0.93,1.02c0.38,0.23 0.8,0.34 1.27,0.34c0.31,0 0.59,-0.03 0.85,-0.11c0.25,-0.07 0.5,-0.19 0.74,-0.34c0.24,-0.16 0.46,-0.32 0.67,-0.5c0.2,-0.18 0.46,-0.42 0.79,-0.72c0.13,-0.12 0.32,-0.18 0.56,-0.18c0.27,0 0.49,0.08 0.65,0.23c0.17,0.14 0.25,0.35 0.25,0.61c0,0.24 -0.09,0.51 -0.27,0.82c-0.19,0.32 -0.46,0.62 -0.84,0.91c-0.37,0.28 -0.84,0.52 -1.39,0.71c-0.56,0.19 -1.21,0.29 -1.94,0.29c-1.67,0 -2.96,-0.48 -3.88,-1.43c-0.93,-0.95 -1.4,-2.24 -1.4,-3.86c0,-0.77 0.12,-1.48 0.35,-2.14c0.23,-0.66 0.56,-1.21 1,-1.69c0.44,-0.47 0.97,-0.82 1.61,-1.07c0.64,-0.25 1.35,-0.38 2.13,-0.38c1.01,0 1.88,0.22 2.61,0.65c0.72,0.42 1.27,0.98 1.63,1.65c0.36,0.68 0.54,1.37 0.54,2.08c0,0.64 -0.19,1.07 -0.56,1.26c-0.37,0.2 -0.9,0.29 -1.58,0.29m-5.07,-1.47l4.7,0c-0.06,-0.89 -0.3,-1.55 -0.71,-1.99c-0.42,-0.44 -0.96,-0.66 -1.64,-0.66c-0.65,0 -1.18,0.22 -1.6,0.67c-0.41,0.45 -0.66,1.11 -0.75,1.98" fill="#FFFFFF" id="svg_17"/>
     <path d="m447.9,773.19l-5.07,0c0,0.59 0.12,1.11 0.35,1.56c0.23,0.45 0.54,0.79 0.92,1.02c0.39,0.23 0.81,0.34 1.28,0.34c0.3,0 0.59,-0.03 0.84,-0.11c0.26,-0.07 0.5,-0.19 0.75,-0.34c0.24,-0.16 0.46,-0.32 0.66,-0.5c0.2,-0.18 0.47,-0.42 0.79,-0.72c0.14,-0.12 0.33,-0.18 0.57,-0.18c0.27,0 0.48,0.08 0.65,0.23c0.16,0.14 0.24,0.35 0.24,0.61c0,0.24 -0.09,0.51 -0.27,0.82c-0.18,0.32 -0.46,0.62 -0.83,0.91c-0.37,0.28 -0.84,0.52 -1.4,0.71c-0.56,0.19 -1.21,0.29 -1.93,0.29c-1.67,0 -2.96,-0.48 -3.89,-1.43c-0.92,-0.95 -1.39,-2.24 -1.39,-3.86c0,-0.77 0.12,-1.48 0.35,-2.14c0.23,-0.66 0.56,-1.21 0.99,-1.69c0.44,-0.47 0.98,-0.82 1.62,-1.07c0.64,-0.25 1.35,-0.38 2.13,-0.38c1.01,0 1.88,0.22 2.61,0.65c0.72,0.42 1.27,0.98 1.62,1.65c0.36,0.68 0.55,1.37 0.55,2.08c0,0.64 -0.2,1.07 -0.56,1.26c-0.38,0.2 -0.9,0.29 -1.58,0.29m-5.07,-1.47l4.7,0c-0.07,-0.89 -0.31,-1.55 -0.72,-1.99c-0.42,-0.44 -0.96,-0.66 -1.64,-0.66c-0.64,0 -1.17,0.22 -1.59,0.67c-0.41,0.45 -0.67,1.11 -0.75,1.98" fill="#FFFFFF" id="svg_18"/>
     <path d="m453.58,768.74l0,0.31c0.49,-0.6 0.99,-1.04 1.52,-1.32c0.52,-0.29 1.12,-0.43 1.79,-0.43c0.79,0 1.53,0.21 2.2,0.62c0.67,0.41 1.2,1.01 1.59,1.8c0.39,0.8 0.59,1.73 0.59,2.82c0,0.79 -0.11,1.53 -0.34,2.2c-0.22,0.67 -0.53,1.23 -0.93,1.68c-0.39,0.45 -0.85,0.8 -1.39,1.04c-0.54,0.25 -1.11,0.37 -1.72,0.37c-0.74,0 -1.37,-0.15 -1.87,-0.45c-0.5,-0.29 -0.98,-0.73 -1.44,-1.3l0,3.89c0,1.13 -0.42,1.71 -1.24,1.71c-0.49,0 -0.81,-0.15 -0.98,-0.44c-0.15,-0.3 -0.23,-0.72 -0.23,-1.29l0,-11.2c0,-0.49 0.11,-0.85 0.32,-1.1c0.22,-0.24 0.51,-0.37 0.89,-0.37c0.36,0 0.66,0.13 0.89,0.38c0.24,0.25 0.35,0.61 0.35,1.08m5.08,3.77c0,-0.69 -0.1,-1.27 -0.31,-1.76c-0.21,-0.5 -0.5,-0.87 -0.87,-1.13c-0.36,-0.26 -0.78,-0.4 -1.23,-0.4c-0.71,0 -1.32,0.29 -1.81,0.85c-0.49,0.56 -0.74,1.39 -0.74,2.49c0,1.03 0.25,1.83 0.74,2.41c0.48,0.57 1.08,0.85 1.81,0.85c0.43,0 0.83,-0.12 1.2,-0.37c0.37,-0.25 0.66,-0.63 0.88,-1.13c0.22,-0.5 0.33,-1.1 0.33,-1.81" fill="#FFFFFF" id="svg_19"/>
     <path d="m463.88,766.08c-0.36,0 -0.67,-0.12 -0.92,-0.34c-0.26,-0.22 -0.39,-0.53 -0.39,-0.93c0,-0.37 0.13,-0.67 0.4,-0.91c0.26,-0.24 0.56,-0.36 0.91,-0.36c0.34,0 0.64,0.11 0.89,0.32c0.26,0.22 0.39,0.53 0.39,0.95c0,0.39 -0.12,0.71 -0.37,0.93c-0.26,0.22 -0.56,0.34 -0.91,0.34m1.28,2.67l0,7.51c0,0.51 -0.12,0.9 -0.37,1.17c-0.25,0.27 -0.56,0.4 -0.94,0.4c-0.38,0 -0.68,-0.14 -0.92,-0.41c-0.24,-0.27 -0.36,-0.66 -0.36,-1.16l0,-7.43c0,-0.51 0.12,-0.9 0.36,-1.16c0.24,-0.26 0.54,-0.39 0.92,-0.39c0.38,0 0.69,0.13 0.94,0.39c0.25,0.26 0.37,0.63 0.37,1.08" fill="#FFFFFF" id="svg_20"/>
     <path d="m473.52,776.64l-2.28,-3.76l-1.41,1.33l0,2.06c0,0.5 -0.13,0.88 -0.39,1.15c-0.26,0.27 -0.57,0.41 -0.91,0.41c-0.4,0 -0.72,-0.13 -0.94,-0.4c-0.23,-0.27 -0.35,-0.66 -0.35,-1.18l0,-11.06c0,-0.57 0.12,-1.01 0.34,-1.31c0.22,-0.31 0.54,-0.46 0.95,-0.46c0.4,0 0.71,0.14 0.95,0.41c0.23,0.28 0.35,0.68 0.35,1.21l0,6.29l2.92,-3.06c0.36,-0.38 0.63,-0.64 0.82,-0.78c0.19,-0.14 0.42,-0.21 0.69,-0.21c0.33,0 0.6,0.11 0.82,0.31c0.21,0.21 0.32,0.47 0.32,0.77c0,0.38 -0.35,0.89 -1.06,1.53l-1.37,1.26l2.66,4.18c0.19,0.31 0.34,0.54 0.42,0.71c0.08,0.16 0.13,0.32 0.13,0.46c0,0.41 -0.11,0.73 -0.34,0.97c-0.23,0.24 -0.52,0.36 -0.89,0.36c-0.31,0 -0.56,-0.08 -0.73,-0.26c-0.17,-0.17 -0.41,-0.48 -0.7,-0.93" fill="#FFFFFF" id="svg_21"/>
     <path d="m479.16,777.83c-0.39,0 -0.73,-0.13 -1.01,-0.38c-0.29,-0.25 -0.43,-0.61 -0.43,-1.07c0,-0.38 0.14,-0.72 0.41,-0.99c0.27,-0.28 0.6,-0.42 1,-0.42c0.4,0 0.74,0.14 1.03,0.41c0.28,0.27 0.42,0.61 0.42,1c0,0.45 -0.14,0.81 -0.42,1.06c-0.29,0.26 -0.62,0.39 -1,0.39" fill="#FFFFFF" id="svg_22"/>
     <path d="m492.06,774.62c0,0.32 -0.1,0.67 -0.29,1.03c-0.19,0.37 -0.49,0.72 -0.89,1.05c-0.39,0.34 -0.89,0.61 -1.49,0.81c-0.6,0.2 -1.28,0.3 -2.03,0.3c-1.61,0 -2.86,-0.47 -3.76,-1.4c-0.9,-0.93 -1.35,-2.19 -1.35,-3.76c0,-1.06 0.21,-2 0.62,-2.82c0.41,-0.81 1.01,-1.45 1.78,-1.9c0.78,-0.44 1.72,-0.67 2.8,-0.67c0.67,0 1.28,0.1 1.85,0.3c0.56,0.19 1.03,0.45 1.43,0.76c0.38,0.31 0.68,0.64 0.88,0.99c0.21,0.35 0.31,0.68 0.31,0.99c0,0.31 -0.11,0.57 -0.34,0.78c-0.23,0.22 -0.52,0.33 -0.84,0.33c-0.22,0 -0.4,-0.06 -0.54,-0.17c-0.14,-0.11 -0.3,-0.29 -0.48,-0.54c-0.32,-0.48 -0.64,-0.84 -0.99,-1.08c-0.35,-0.24 -0.79,-0.36 -1.32,-0.36c-0.76,0 -1.38,0.3 -1.85,0.9c-0.47,0.59 -0.71,1.42 -0.71,2.45c0,0.49 0.07,0.94 0.19,1.35c0.12,0.4 0.29,0.75 0.52,1.04c0.23,0.29 0.5,0.51 0.82,0.66c0.33,0.15 0.69,0.22 1.07,0.22c0.52,0 0.97,-0.12 1.34,-0.36c0.37,-0.24 0.7,-0.61 0.98,-1.1c0.16,-0.29 0.33,-0.52 0.51,-0.68c0.18,-0.17 0.41,-0.25 0.68,-0.25c0.31,0 0.58,0.12 0.78,0.36c0.21,0.24 0.32,0.5 0.32,0.77" fill="#FFFFFF" id="svg_23"/>
     <path d="m503.25,772.56c0,0.77 -0.12,1.48 -0.36,2.14c-0.24,0.65 -0.59,1.21 -1.05,1.68c-0.45,0.47 -1,0.82 -1.63,1.08c-0.64,0.24 -1.35,0.37 -2.14,0.37c-0.78,0 -1.49,-0.13 -2.12,-0.38c-0.62,-0.25 -1.17,-0.62 -1.62,-1.08c-0.46,-0.48 -0.81,-1.04 -1.06,-1.68c-0.22,-0.65 -0.35,-1.36 -0.35,-2.13c0,-0.79 0.13,-1.51 0.36,-2.16c0.24,-0.65 0.59,-1.21 1.04,-1.67c0.45,-0.46 0.99,-0.82 1.63,-1.07c0.64,-0.25 1.35,-0.38 2.12,-0.38c0.79,0 1.5,0.13 2.14,0.38c0.64,0.26 1.18,0.62 1.64,1.08c0.46,0.48 0.81,1.03 1.04,1.68c0.24,0.65 0.36,1.35 0.36,2.14m-2.61,0c0,-1.06 -0.23,-1.88 -0.69,-2.47c-0.47,-0.6 -1.09,-0.89 -1.88,-0.89c-0.51,0 -0.95,0.13 -1.34,0.4c-0.39,0.26 -0.68,0.64 -0.89,1.16c-0.21,0.51 -0.31,1.11 -0.31,1.8c0,0.68 0.1,1.27 0.3,1.77c0.21,0.51 0.51,0.9 0.89,1.17c0.39,0.26 0.84,0.4 1.35,0.4c0.79,0 1.42,-0.3 1.88,-0.89c0.46,-0.59 0.69,-1.41 0.69,-2.45" fill="#FFFFFF" id="svg_24"/>
     <path d="m513.14,772.75l0,3.45c0,0.54 -0.12,0.95 -0.37,1.22c-0.25,0.28 -0.57,0.41 -0.98,0.41c-0.39,0 -0.71,-0.13 -0.95,-0.41c-0.24,-0.27 -0.37,-0.68 -0.37,-1.22l0,-4.14c0,-0.65 -0.02,-1.16 -0.06,-1.52c-0.05,-0.35 -0.17,-0.65 -0.36,-0.88c-0.2,-0.24 -0.51,-0.36 -0.94,-0.36c-0.85,0 -1.4,0.3 -1.67,0.89c-0.27,0.57 -0.41,1.41 -0.41,2.5l0,3.51c0,0.53 -0.12,0.94 -0.36,1.22c-0.25,0.27 -0.57,0.41 -0.96,0.41c-0.4,0 -0.72,-0.14 -0.97,-0.41c-0.25,-0.28 -0.38,-0.69 -0.38,-1.22l0,-7.42c0,-0.49 0.11,-0.86 0.34,-1.12c0.23,-0.25 0.52,-0.38 0.89,-0.38c0.36,0 0.65,0.13 0.89,0.36c0.24,0.24 0.35,0.56 0.35,0.98l0,0.25c0.46,-0.54 0.94,-0.94 1.45,-1.18c0.52,-0.26 1.08,-0.39 1.71,-0.39c0.65,0 1.21,0.13 1.68,0.39c0.47,0.26 0.85,0.65 1.16,1.18c0.44,-0.53 0.91,-0.93 1.41,-1.18c0.5,-0.26 1.05,-0.39 1.66,-0.39c0.71,0 1.32,0.14 1.84,0.42c0.51,0.28 0.89,0.68 1.14,1.19c0.22,0.48 0.33,1.21 0.33,2.22l0,5.06c0,0.55 -0.12,0.96 -0.36,1.23c-0.25,0.27 -0.58,0.41 -0.98,0.41c-0.4,0 -0.72,-0.14 -0.97,-0.41c-0.25,-0.28 -0.38,-0.69 -0.38,-1.23l0,-4.36c0,-0.56 -0.02,-1 -0.06,-1.33c-0.05,-0.34 -0.18,-0.63 -0.39,-0.85c-0.21,-0.23 -0.53,-0.35 -0.95,-0.35c-0.34,0 -0.67,0.11 -0.97,0.31c-0.31,0.2 -0.55,0.48 -0.73,0.82c-0.18,0.43 -0.28,1.21 -0.28,2.32" fill="#FFFFFF" id="svg_25"/>
    </g>
    <g id="svg_26">
     <path d="m392.44,771.93c-0.01,0 -0.01,-0.01 -0.01,-0.02c0,0.01 0,0.02 0.01,0.02z" fill="#FFFFFF" id="svg_27"/>
     <path d="m392.57,772.76c0,0 0,0 0,0c-0.05,-0.24 -0.09,-0.47 -0.12,-0.7c0.03,0.23 0.07,0.46 0.12,0.7z" fill="#FFFFFF" id="svg_28"/>
     <path d="m393.42,775.17c0,-0.01 -0.01,-0.03 -0.01,-0.04c0,0.01 0.01,0.03 0.01,0.04z" fill="#FFFFFF" id="svg_29"/>
     <path d="m393.34,775.01c-0.02,-0.05 -0.04,-0.09 -0.06,-0.14c0.02,0.05 0.04,0.09 0.06,0.14z" fill="#FFFFFF" id="svg_30"/>
     <path d="m392.81,773.68c0.12,0.4 0.28,0.79 0.45,1.16c-0.18,-0.37 -0.33,-0.76 -0.45,-1.16c0,0 0,0 0,0z" fill="#FFFFFF" id="svg_31"/>
     <path d="m402.47,761.99c0.51,0 0.87,0.04 1.3,0.12l0.12,-0.77c0,0 -1.17,-0.36 -2.71,-0.23l-0.12,-0.42c0.48,-0.1 0.84,-0.52 0.84,-1.03c0,-0.58 -0.48,-1.05 -1.06,-1.05c-0.59,0 -1.06,0.47 -1.06,1.05c0,0.51 0.36,0.93 0.84,1.03l0.13,0.47c-1.63,0.22 -2.93,0.86 -2.93,0.86l0.23,0.7c0.98,-0.33 1.84,-0.53 2.62,-0.61c0.76,-0.08 1.34,-0.12 1.8,-0.12z" fill="#FFFFFF" id="svg_32"/>
     <path d="m393.4,765.85l0.01,-0.01c0.04,-0.05 0.08,-0.09 0.11,-0.14l-0.31,-0.22l-0.49,-0.36c-0.03,0.04 -0.79,0.74 -1.4,2.05c-0.02,-0.04 -0.06,-0.09 -0.09,-0.12c-0.18,-0.2 -0.43,-0.3 -0.76,-0.3c0,0 -0.01,0 -0.01,0c-0.2,0 -0.34,-0.06 -0.43,-0.14c0.09,-0.12 0.15,-0.26 0.15,-0.42c0,-0.36 -0.31,-0.67 -0.68,-0.67c-0.36,0 -0.66,0.31 -0.66,0.67c0,0.37 0.3,0.67 0.66,0.67c0.06,0 0.12,-0.01 0.17,-0.02c0.17,0.19 0.43,0.34 0.81,0.34c0.2,-0.01 0.34,0.04 0.44,0.15c0.11,0.12 0.15,0.3 0.16,0.43c0,0 0,0 -0.01,0c-0.43,1.19 -0.31,2.67 -0.31,2.67l1.06,0.05c0.02,-0.54 0.1,-1.49 0.37,-2.23c0.53,-1.45 1.19,-2.36 1.21,-2.4z" fill="#FFFFFF" id="svg_33"/>
     <path d="m411.67,762.88c-0.36,0 -0.67,0.3 -0.67,0.67c0,0.05 0.01,0.11 0.03,0.16c-0.19,0.17 -0.35,0.43 -0.34,0.81c0,0.2 -0.05,0.34 -0.15,0.44c-0.09,0.07 -0.2,0.11 -0.3,0.14c-0.79,-1.1 -1.76,-1.77 -1.76,-1.77l-0.76,0.81c0.58,0.52 1.16,1.17 1.73,1.99c0.4,0.56 0.8,1.29 1.14,2.01l1.02,-0.48c0,0 -0.46,-1.16 -1.12,-2.19c0.11,-0.04 0.23,-0.11 0.33,-0.2c0.2,-0.18 0.3,-0.43 0.29,-0.75c0,-0.21 0.07,-0.35 0.15,-0.45c0.11,0.09 0.26,0.15 0.41,0.15c0.37,0 0.67,-0.3 0.67,-0.67c0,-0.37 -0.3,-0.67 -0.67,-0.67z" fill="#FFFFFF" id="svg_34"/>
     <path d="m409.02,772.08c-1.41,0.69 -3.73,1.59 -6.78,2.02c-1.2,0.17 -2.36,0.23 -3.43,0.23c-1.4,0 -2.62,-0.11 -3.57,-0.23c-1.07,-0.13 -1.91,-0.3 -2.43,-0.41c0.12,0.39 0.27,0.78 0.45,1.15c0.01,0.01 0.01,0.03 0.02,0.03c0.02,0.05 0.04,0.09 0.06,0.14c0.02,0.04 0.04,0.08 0.07,0.12c0,0.01 0.01,0.03 0.01,0.04c0.31,0.57 0.67,1.09 1.09,1.55c1.43,1.57 2.9,1.82 2.92,1.82l0.02,0l0.02,0.01c0.02,0.01 1.32,0.43 3.29,0.43c1.95,0 3.86,-0.4 5.68,-1.17c1.34,-0.69 2.62,-1.74 3.25,-2.67c0.49,-0.72 0.84,-1.49 1.05,-2.29c0.11,-0.43 0.2,-1.11 0.15,-1.83c-0.4,0.27 -1.03,0.65 -1.87,1.06z" fill="#FFFFFF" id="svg_35"/>
     <path d="m393.86,766.18c-0.04,0.07 -0.65,0.93 -1.14,2.26c-0.36,0.99 -0.34,2.44 -0.34,2.46l0,0c0,0.34 0.02,0.68 0.05,1.01c0,0.01 0,0.02 0.01,0.02c0,0.04 0.01,0.08 0.01,0.13c0.03,0.23 0.07,0.46 0.12,0.7c0.7,0.18 4.88,1.15 9.55,0.5c2.93,-0.41 5.15,-1.27 6.5,-1.93c1.12,-0.54 1.84,-1.03 2.12,-1.23c-0.28,-1.03 -1.04,-2.65 -1.75,-3.65c-2,-2.87 -4.16,-3.6 -5.27,-3.78c-0.43,-0.07 -0.77,-0.11 -1.25,-0.11c-0.44,0 -1,0.03 -1.74,0.11c-0.74,0.08 -1.57,0.27 -2.53,0.6c-1.35,0.45 -2.57,1.16 -3.53,2.05l-0.03,0.03c-0.14,0.13 -0.44,0.4 -0.78,0.83zm12.27,-0.66c0.96,0 1.74,0.78 1.74,1.74c0,0.96 -0.78,1.74 -1.74,1.74c-0.96,0 -1.75,-0.78 -1.75,-1.74c0,-0.96 0.79,-1.74 1.75,-1.74zm-8.25,-0.07c1.56,0 2.82,1.26 2.82,2.82c0,1.55 -1.26,2.81 -2.82,2.81c-1.55,0 -2.81,-1.26 -2.81,-2.81c0,-1.56 1.26,-2.82 2.81,-2.82z" fill="#FFFFFF" id="svg_36"/>
    </g>
   </g>
  </g>
  <g id="OBJECTS">
   <g id="svg_37">
    <g id="svg_38">
     <g id="svg_39"/>
    </g>
    <g id="svg_43">
     <g id="svg_44">
      <g id="svg_45">
       <path d="m603.85,-381.56c-39.6,7.08 -77.19,1.9 -75.39,-46.14c1.8,-48.07 -26.93,-50 -66.41,-51.93c-39.5,-1.9 -19.75,-59.6 -46.68,-82.65c-26.93,-23.08 -52.06,21.15 -75.39,0c-23.33,-21.15 28.71,-88.44 -8.99,-111.53c-37.7,-23.06 -57.42,30.78 -66.41,61.53c-8.96,30.78 -25.13,30.78 -87.96,30.78c-62.83,0 -68.21,26.92 -87.96,67.29c-19.75,40.37 -55.64,26.92 -73.59,80.75c-17.95,53.83 17.95,90.35 17.95,90.35l11.66,12.14c9.21,-106.03 92.46,-189 193.86,-189c107.58,0 194.76,93.38 194.76,208.57c0,108.23 -76.94,197.18 -175.44,207.58c34.04,29.14 81.22,33.16 109.03,4.88c35.89,-36.54 61.02,-74.99 105.9,-86.51c44.88,-11.55 28.71,-44.23 35.89,-86.54c7.18,-42.28 44.75,-26.22 95.14,-26.92c79.17,-1.07 70.01,-95.17 0,-82.65z" fill="#63C8D3" id="svg_46"/>
       <path d="m104.12,-616.33c10.81,1.74 50.01,-19.87 35.97,-51.77c-14.04,-31.9 -95.84,42.12 -35.97,51.77z" fill="#63C8D3" id="svg_47"/>
       <path d="m614.86,-499.58c26.71,-26.84 9.19,-59.95 -25.91,-58.15c-18.52,0.94 -44.25,17.88 -43.43,40.27c0.83,22.36 42.6,44.72 69.33,17.88z" fill="#63C8D3" id="svg_48"/>
       <path d="m560.4,-179.48c-7.98,-7.02 -27.78,-12.87 -34.34,-4.32c-6.56,8.55 2.65,28.23 10.61,35.25c7.98,7 19.75,5.76 26.28,-2.76c6.56,-8.55 5.41,-21.15 -2.55,-28.18z" fill="#63C8D3" id="svg_49"/>
       <path d="m750.78,-342.4c-7.98,-10.88 -30.76,-16.81 -44.78,-4.96c-14.04,11.82 -13.99,36.92 -6.01,47.8c8.01,10.86 25.86,10.08 39.87,-1.74c14.04,-11.85 18.9,-30.24 10.91,-41.1z" fill="#63C8D3" id="svg_50"/>
      </g>
      <g id="svg_51">
       <path d="m598.27,-381.56c-39.57,7.08 -77.17,1.9 -75.39,-46.14c1.8,-48.07 -26.91,-50 -66.41,-51.93c-39.5,-1.9 -19.75,-59.6 -46.68,-82.65c-26.91,-23.08 -52.04,21.15 -75.37,0c-23.35,-21.15 28.71,-88.44 -8.99,-111.53c-37.7,-23.06 -57.44,30.78 -66.41,61.53c-8.99,30.78 -25.13,30.78 -87.96,30.78s-92.84,18.58 -112.59,58.95c-19.75,40.37 -44.83,32.09 -48.98,89.09c-5.01,69.25 17.97,90.35 17.97,90.35l11.64,12.14c9.21,-106.03 92.49,-189 193.88,-189c107.55,0 194.76,93.38 194.76,208.57c0,108.23 -76.97,197.18 -175.46,207.58c34.07,29.14 81.22,33.16 109.03,4.88c35.89,-36.54 61.02,-74.99 105.9,-86.51c44.88,-11.55 28.73,-44.23 35.92,-86.54c7.16,-42.28 44.73,-26.22 95.11,-26.92c79.17,-1.07 70.01,-95.17 0,-82.65z" fill="#FFFFFF" id="svg_52"/>
       <path d="m98.54,-616.33c10.81,1.74 50.04,-19.87 35.99,-51.77c-14.04,-31.9 -95.84,42.12 -35.99,51.77z" fill="#FFFFFF" id="svg_53"/>
       <path d="m583.4,-557.73c-18.52,0.94 -44.28,17.88 -43.43,40.27c0.83,22.36 42.58,44.72 69.31,17.88c26.73,-26.84 9.19,-59.95 -25.88,-58.15z" fill="#FFFFFF" id="svg_54"/>
       <path d="m531.11,-148.57c-7.98,-7 -17.17,-26.7 -10.64,-35.23c6.56,-8.55 26.38,-2.71 34.34,4.32c7.98,7.02 9.14,19.62 2.58,28.18c-6.56,8.53 -18.32,9.76 -26.28,2.73z" fill="#FFFFFF" id="svg_55"/>
       <path d="m745.22,-342.4c7.98,10.86 3.1,29.25 -10.94,41.1c-14.02,11.82 -31.86,12.6 -39.85,1.74c-8.01,-10.88 -8.03,-35.98 5.98,-47.8c14.04,-11.85 36.79,-5.92 44.8,4.96z" fill="#FFFFFF" id="svg_56"/>
       <g id="svg_57">
        <path d="m268.72,-595.37c0,0 19.1,-74.77 44.55,-67.1c25.46,7.67 8.36,46.25 8.36,46.25s-15.32,-38.79 -52.91,20.86z" fill="#EBFBFC" id="svg_58"/>
        <path d="m363.38,-543.17c0,0 29.26,-22.39 39,0c9.74,22.36 22.28,62.63 22.28,62.63s-34.82,-61.15 -61.27,-62.63z" fill="#EBFBFC" id="svg_59"/>
        <path d="m466.43,-465.64c0,0 33.42,4.48 38.97,19.38c5.58,14.91 6.96,49.22 6.96,49.22s-11.14,-58.18 -45.93,-68.6z" fill="#EBFBFC" id="svg_60"/>
        <path d="m622.25,-364.25c0,0 24.5,18.61 7.06,41.37c-17.42,22.76 -89.36,0 -89.36,0s87.76,9.36 82.3,-41.37z" fill="#EBFBFC" id="svg_61"/>
        <path d="m489.39,-264.89c0,0 11.84,60.7 -43.85,76.86c0,0 37.6,-44.58 43.85,-76.86z" fill="#EBFBFC" id="svg_62"/>
        <path d="m100.27,-505.91c0,0 13.27,-38.18 37.24,-51.88c24,-13.73 68.56,0 68.56,0s-72.39,5.66 -105.8,51.88z" fill="#EBFBFC" id="svg_63"/>
       </g>
      </g>
     </g>
     <g id="svg_64">
      <g id="svg_65">
       <path d="m1663.75,-180.44c-12.04,-67.69 -141.45,-56.41 -188.1,-62.84c-46.63,-6.46 -27.08,-49.97 -1.5,-48.36c25.58,1.61 70.74,-4.83 73.74,-35.44c3,-30.64 -16.54,-35.47 -66.2,-45.15c-49.66,-9.65 -73.74,-41.9 -15.04,-69.3c58.67,-27.4 48.13,-83.81 13.54,-95.79c-34.62,-12.01 -76.74,103.86 -93.31,86.14c-16.54,-17.75 37.62,-72.55 10.54,-86.14c-27.08,-13.62 -33.11,81.29 -63.2,65.17c-30.09,-16.11 40.62,-135.39 34.62,-178.9c-6.03,-43.51 -64.7,-58.01 -84.28,9.68c-19.57,67.69 -15.04,167.61 -37.62,185.33c-22.58,17.72 -54.17,-11.29 -60.2,-64.48c-6.01,-53.16 -36.09,-80.59 -63.2,-48.93c-27.08,31.66 46.66,106.97 33.11,137.58c-13.54,30.62 -63.2,-3.22 -85.78,-54.8c-22.58,-51.58 -63.2,-109.6 -93.29,-69.3c-30.11,40.29 40.62,95.09 61.7,116.03c21.05,20.96 9.24,53.19 -12.04,53.19c-52.69,0 -116.69,11.1 -104.65,77.18c12.04,66.08 185.9,-20.78 194.94,-6.27c9.04,14.53 9.04,30.64 -36.12,45.15c-45.15,14.5 -18.05,49.97 0,53.19c18.05,3.22 64.98,-38.31 79.75,-25.79c17.45,14.77 -7.16,38.95 -64.78,81.82c-56.99,42.44 -156.41,109.97 -96.22,155.09c60.17,45.09 140.95,-100.45 167.23,-141.07c27.33,-42.17 58.47,-57.16 58.47,-28.15c0,29.01 -45.13,74.13 -12.04,88.63c33.11,14.53 55.69,-49.95 66.23,-64.45c10.51,-14.5 27.08,9.65 27.08,85.41c0,75.76 52.66,74.15 58.67,24.18c6.03,-49.97 -21.05,-103.16 4.53,-116.06c25.58,-12.9 40.62,49.97 78.24,75.76c37.62,25.79 61.7,-24.18 31.61,-49.97c-30.11,-25.79 -78.27,-49.97 -57.19,-69.3c21.08,-19.33 93.29,41.9 141.45,87.02c48.16,45.15 111.36,1.64 99.32,-66.08z" fill="#63C8D3" id="svg_66"/>
       <path d="m1390.75,-686.73c34.64,7.96 49.56,-25.2 28.91,-54.07c-10.91,-15.25 -37.67,-27.85 -53.79,-14.83c-16.14,13.03 -9.76,60.91 24.88,68.9z" fill="#63C8D3" id="svg_67"/>
       <path d="m1601.05,-358.75c-0.25,-8.18 -19.02,-34.24 -37.67,-19.89c-18.65,14.37 39.1,65.07 37.67,19.89z" fill="#63C8D3" id="svg_68"/>
       <path d="m1035.7,-220.9c2.63,-12.81 -32.59,6.68 -67.93,-13.46c-37.85,-21.53 -72.99,41.18 -18.77,60.48c44.6,15.9 84.28,-35.12 86.7,-47.02z" fill="#63C8D3" id="svg_69"/>
       <path d="m1365.69,7.57c-11.56,9.76 -11.54,30.46 -4.96,39.44c6.61,8.98 21.33,8.34 32.89,-1.45c11.59,-9.76 15.62,-24.93 9.04,-33.89c-6.61,-8.98 -25.41,-13.86 -36.97,-4.1z" fill="#63C8D3" id="svg_70"/>
      </g>
      <g id="svg_71">
       <g id="svg_72">
        <path d="m1017.22,-386.74c21.28,0 33.11,-32.22 12.04,-53.16c-21.08,-20.96 -91.79,-75.76 -61.7,-116.06c30.09,-40.29 70.74,17.72 93.29,69.3c22.58,51.58 72.24,85.41 85.78,54.8c13.54,-30.62 -60.17,-105.92 -33.09,-137.58c27.08,-31.63 57.17,-4.24 63.2,48.95c6.01,53.16 37.6,82.17 60.17,64.45c22.58,-17.72 18.07,-117.64 37.62,-185.33c19.57,-67.69 78.27,-53.19 84.28,-9.68c6.01,43.51 -64.7,162.78 -34.62,178.9c30.11,16.11 36.12,-78.79 63.2,-65.17c27.08,13.59 -27.08,68.39 -10.54,86.14c16.57,17.72 58.7,-98.15 93.31,-86.14c34.59,11.98 45.13,68.39 -13.54,95.79c-58.7,27.4 -34.62,59.65 15.04,69.33c49.66,9.65 69.21,14.5 66.2,45.12c-3,30.62 -48.16,37.05 -73.74,35.44c-25.58,-1.61 -45.13,41.9 1.53,48.36c46.63,6.46 176.04,-4.83 188.08,62.87c12.04,67.69 -51.16,111.2 -99.32,66.06c-48.13,-45.12 -120.37,-106.35 -141.45,-87.02c-21.08,19.33 27.11,43.51 57.19,69.3c30.09,25.79 6.01,75.76 -31.61,49.97c-37.62,-25.79 -52.66,-88.66 -78.24,-75.76c-25.58,12.9 1.5,66.08 -4.51,116.06c-6.03,49.97 -58.7,51.58 -58.7,-24.18c0,-75.76 -16.54,-99.92 -27.08,-85.41c-10.54,14.5 -33.11,78.98 -66.2,64.45c-33.11,-14.5 12.04,-59.62 12.04,-88.63c0,-29.01 -31.16,-14.02 -58.47,28.15c-26.31,40.62 -107.08,186.16 -167.25,141.07c-60.2,-45.12 39.25,-112.65 96.24,-155.09c57.59,-42.87 82.22,-67.05 64.75,-81.82c-14.77,-12.52 -61.67,29.01 -79.75,25.79c-18.05,-3.22 -45.13,-38.69 0,-53.19c45.15,-14.5 45.15,-30.62 36.12,-45.15c-9.04,-14.5 -182.9,72.36 -194.94,6.27c-12.04,-66.08 51.99,-77.18 104.65,-77.18z" fill="#FFFFFF" id="svg_73"/>
        <g id="svg_74">
         <path d="m926.59,-336.58c0,0 -4.66,41.07 36.44,36.54c41.12,-4.53 104.65,-27 104.65,-27s-135.49,32.49 -141.1,-9.54z" fill="#EBFBFC" id="svg_75"/>
         <path d="m986.39,-50.37c0,0 3.38,43.3 35.52,40.03c32.14,-3.27 93.44,-108.68 93.44,-108.68s-74.74,100.69 -128.96,68.66z" fill="#EBFBFC" id="svg_76"/>
         <path d="m1203.17,-119.02c0,0 1.3,23.14 20.55,18.61c19.25,-4.5 30.84,-57.02 30.84,-57.02s-28.96,51.82 -51.39,38.42z" fill="#EBFBFC" id="svg_77"/>
         <path d="m1309.68,-38.35c0,0 11.81,23.24 28.96,9.89c17.17,-13.35 0,-107.96 0,-107.96s1.88,94.07 -28.96,98.07z" fill="#EBFBFC" id="svg_78"/>
         <path d="m1059.27,-251.11c0,0 -2.8,24.61 23.35,18.61c26.16,-6.01 62.6,-24.02 62.6,-24.02s-81.85,16.78 -85.95,5.42z" fill="#EBFBFC" id="svg_79"/>
         <path d="m986.39,-552.74c0,0 -29.89,12.01 -8.39,42.04c21.48,30.03 55.12,63.03 55.12,63.03s-57.94,-81.04 -46.73,-105.06z" fill="#EBFBFC" id="svg_80"/>
         <path d="m1115.34,-552.74c0,0 20.55,-26.03 34.57,-9.01c14.02,17 15.89,61.55 15.89,61.55s-15.89,-51.55 -50.46,-52.55z" fill="#EBFBFC" id="svg_81"/>
         <path d="m1275.11,-605.8c0,0 13.09,-73.05 46.71,-71.04c33.64,2.01 24.45,30.03 24.45,30.03s-28.18,-28.02 -71.16,41.02z" fill="#EBFBFC" id="svg_82"/>
         <path d="m1440.48,-506.71c0,0 16.82,-21.02 31.76,-12.01c14.97,9.01 19.62,47 -15.87,62.52c0,0 34.57,-70.53 -15.89,-50.51z" fill="#EBFBFC" id="svg_83"/>
         <path d="m1461.98,-360.6c0,0 56.99,-1.58 58.85,17.72c1.88,19.3 -49.51,36.33 -49.51,36.33s40.2,-25.04 -9.34,-54.05z" fill="#EBFBFC" id="svg_84"/>
         <path d="m1570.37,-219.5c0,0 50.46,0 63.53,29.03c13.09,29.01 -31.76,76.06 -31.76,76.06s30.79,-84.07 -31.76,-105.09z" fill="#EBFBFC" id="svg_85"/>
         <path d="m1446.09,-136.42c0,0 41.12,23.99 15.89,51.02c0,0 -6.56,-37.02 -15.89,-51.02z" fill="#EBFBFC" id="svg_86"/>
        </g>
       </g>
       <path d="m1409.65,-740.83c-10.89,-15.25 -37.65,-27.83 -53.79,-14.8c-16.14,13.03 -9.76,60.91 24.88,68.87c34.64,7.99 49.56,-25.17 28.91,-54.07z" fill="#FFFFFF" id="svg_87"/>
       <path d="m1591.04,-358.75c-0.25,-8.18 -19.02,-34.24 -37.67,-19.89c-18.65,14.37 39.1,65.07 37.67,19.89z" fill="#FFFFFF" id="svg_88"/>
       <path d="m1025.68,-220.9c2.63,-12.81 -32.59,6.68 -67.93,-13.46c-37.85,-21.53 -72.99,41.18 -18.77,60.48c44.6,15.9 84.28,-35.12 86.7,-47.02z" fill="#FFFFFF" id="svg_89"/>
       <path d="m1392.65,11.64c6.58,8.98 2.55,24.15 -9.04,33.91c-11.56,9.76 -26.28,10.4 -32.89,1.45c-6.58,-8.98 -6.61,-29.68 4.96,-39.44c11.56,-9.76 30.36,-4.88 36.97,4.07z" fill="#FFFFFF" id="svg_90"/>
      </g>
     </g>
     <g id="svg_91">
      <g id="svg_92">
       <path d="m733.61,225.98c-15.14,-9.79 -47.48,-6.01 -62.98,19.28c-15.52,25.28 0.9,74.45 41.15,60.29c40.25,-14.16 50.49,-61.1 21.83,-79.57z" fill="#63C8D3" id="svg_93"/>
       <path d="m771.25,439.79c-13.74,-0.48 -25.51,19.2 -25.86,30.24c-0.35,11.05 10.49,20.4 24.23,20.91c13.77,0.51 25.18,-8.04 25.53,-19.09c0.35,-11.05 -10.14,-31.55 -23.9,-32.06z" fill="#63C8D3" id="svg_94"/>
       <path d="m82.74,401.9c11.56,-9.76 15.59,-24.93 9.01,-33.91c-6.61,-8.95 -25.38,-13.86 -36.97,-4.07c-11.56,9.76 -11.54,30.46 -4.93,39.41c6.58,8.98 21.33,8.34 32.89,-1.42z" fill="#63C8D3" id="svg_95"/>
       <path d="m163.97,209.23c20.5,-7.18 25.71,-31.07 11.11,-40.48c-7.71,-4.96 -24.15,-3.06 -32.04,9.81c-7.91,12.87 0.45,37.88 20.93,30.67z" fill="#63C8D3" id="svg_96"/>
       <path d="m540.92,218.74c42.65,-4.37 39.72,-77.42 -15.44,-61.55c-45.4,13.06 -52.26,79.06 -48.18,90.43c4.41,12.25 23.78,-24.8 63.63,-28.87z" fill="#63C8D3" id="svg_97"/>
       <path d="m604.32,542.14c-57.79,1.82 -85,-12.73 -85,-49.17c0,-36.41 88.41,-40.05 124.1,-20.03c35.72,20.03 66.31,14.56 69.71,-18.2c3.4,-32.79 -13.59,-67.37 -66.48,-69.19c-52.89,-1.82 -135.84,45.52 -144.32,10.91c-8.51,-34.58 86.7,-45.52 118.99,-60.08c32.31,-14.58 42.03,-67.05 -11.89,-78.31c-52.44,-10.94 -103.7,71.02 -141.12,111.07c-37.4,40.08 -62.9,-7.27 -54.39,-72.81c8.49,-65.58 25.51,-187.56 -49.31,-176.65c-74.79,10.94 -11.89,123.83 5.11,205.76c17,81.96 -49.31,96.51 -76.49,69.19c-27.21,-27.32 -52.31,-163.62 -105.4,-153.24c-36.32,7.08 -32.31,56.73 17,94.98c49.28,38.23 88.41,138.39 64.6,160.24c-23.8,21.85 -40.8,-18.2 -78.22,-65.55c-37.4,-47.34 -93.49,-21.85 -83.3,25.5c10.21,47.32 100.32,47.32 102.02,78.28c1.68,30.96 -15.32,38.26 -64.6,-3.65c-49.31,-41.88 -127.53,-52.79 -137.72,0c-10.21,52.81 30.59,61.93 79.9,40.08c49.31,-21.85 108.81,20.03 115.61,56.43c6.78,36.43 22.1,60.11 47.61,65.55c0,0 163.2,14.58 232.91,1.82c69.71,-12.73 6.78,-92.87 64.6,-121.98c57.79,-29.14 142.67,101.63 181.89,25.5c17.72,-34.42 -68.01,-58.28 -125.8,-56.46z" fill="#63C8D3" id="svg_98"/>
      </g>
      <g id="svg_99">
       <path d="m728.6,225.98c-15.14,-9.79 -47.48,-6.01 -62.98,19.28c-15.52,25.28 0.9,74.45 41.15,60.29c40.25,-14.16 50.49,-61.1 21.83,-79.57z" fill="#FFFFFF" id="svg_100"/>
       <g id="svg_101">
        <g id="svg_102">
         <path d="m740.39,470.03c0.35,-11.05 12.14,-30.72 25.86,-30.21c13.77,0.48 24.25,20.99 23.9,32.04c-0.35,11.05 -11.76,19.6 -25.53,19.09c-13.74,-0.51 -24.58,-9.87 -24.23,-20.91z" fill="#FFFFFF" id="svg_103"/>
         <path d="m86.75,367.99c6.58,8.98 2.55,24.15 -9.01,33.91c-11.56,9.76 -26.31,10.4 -32.89,1.42c-6.61,-8.95 -6.63,-29.68 4.93,-39.44c11.59,-9.76 30.36,-4.88 36.97,4.1z" fill="#FFFFFF" id="svg_104"/>
         <path d="m170.08,168.75c-7.71,-4.96 -24.15,-3.06 -32.04,9.81c-7.91,12.87 0.45,37.88 20.93,30.67c20.5,-7.18 25.71,-31.07 11.11,-40.48z" fill="#FFFFFF" id="svg_105"/>
         <path d="m472.29,247.62c4.41,12.25 23.78,-24.8 63.63,-28.87c42.65,-4.37 39.72,-77.42 -15.44,-61.55c-45.4,13.06 -52.26,79.06 -48.18,90.43z" fill="#FFFFFF" id="svg_106"/>
        </g>
        <g id="svg_107">
         <path d="m245.69,693.27c-25.48,-5.44 -40.8,-29.11 -47.61,-65.55c-6.78,-36.41 -66.28,-78.28 -115.59,-56.43c-49.31,21.85 -90.11,12.73 -79.9,-40.08c10.19,-52.79 88.38,-41.88 137.69,0c49.31,41.9 66.31,34.61 64.6,3.65c-1.7,-30.94 -91.81,-30.94 -102,-78.28c-10.21,-47.34 45.91,-72.84 83.3,-25.5c37.4,47.34 54.42,87.4 78.19,65.55c23.8,-21.85 -15.29,-122.01 -64.6,-160.24c-49.28,-38.26 -53.29,-87.91 -17,-94.98c53.09,-10.38 78.22,125.92 105.4,153.24c27.21,27.32 93.51,12.76 76.52,-69.19c-17,-81.93 -79.92,-194.82 -5.11,-205.76c74.82,-10.91 57.79,111.07 49.31,176.65c-8.51,65.55 17,112.89 54.39,72.81c37.4,-40.05 88.68,-122.01 141.12,-111.07c53.92,11.26 44.2,63.75 11.89,78.31c-32.29,14.56 -127.5,25.5 -118.99,60.08c8.49,34.61 91.44,-12.73 144.32,-10.91c52.86,1.82 69.88,36.41 66.48,69.19c-3.4,32.76 -34.02,38.23 -69.71,18.2c-35.69,-20.03 -124.1,-16.38 -124.1,20.03c0,36.43 27.18,50.99 85,49.17c57.79,-1.82 143.52,22.04 125.8,56.46c-39.22,76.14 -124.1,-54.64 -181.92,-25.5c-57.79,29.11 5.11,109.25 -64.6,121.98c-69.68,12.76 -232.91,-1.82 -232.91,-1.82z" fill="#FFFFFF" id="svg_108"/>
         <g id="svg_109">
          <path d="m16.34,562.14c0,0 -15.12,-39.78 15.02,-52.73c30.14,-12.92 69.23,20.56 69.23,20.56s-75.92,-28.61 -84.25,32.17z" fill="#EBFBFC" id="svg_110"/>
          <path d="m114.38,460.72c0,0 -5.96,-40.96 25.03,-42.89c30.99,-1.96 54.22,42.89 54.22,42.89s-60.45,-43.86 -79.25,0z" fill="#EBFBFC" id="svg_111"/>
          <path d="m166.1,277.51c0,0 2.85,-31.77 30.89,-21.45c28.01,10.35 30.04,51.98 30.04,51.98s-37.55,-48.39 -60.92,-30.54z" fill="#EBFBFC" id="svg_112"/>
          <path d="m336.3,154.94c0,0 10.01,-28.44 38.37,-17.72c28.38,10.72 22.53,94.72 22.53,94.72s-17.5,-93.24 -60.9,-77z" fill="#EBFBFC" id="svg_113"/>
          <path d="m545.73,301.64c0,0 38.37,-39.3 65.08,-25.9s7.51,47.34 7.51,47.34s-8.36,-42.89 -72.59,-21.45z" fill="#EBFBFC" id="svg_114"/>
          <path d="m606.63,404.42c0,0 65.08,-8.18 78.42,13.32c13.37,21.53 -10.01,47.61 -10.01,47.61s0.25,-63.3 -68.41,-60.94z" fill="#EBFBFC" id="svg_115"/>
          <path d="m636.26,562.14c0,0 70.49,4.91 71.34,23.67s-24.3,22.36 -24.3,22.36s-2.83,-31.74 -47.03,-46.03z" fill="#EBFBFC" id="svg_116"/>
         </g>
        </g>
       </g>
      </g>
     </g>
     <g id="svg_117">
      <g id="svg_118">
       <path d="m1139.62,170.65c14.02,-11.82 18.92,-30.21 10.91,-41.1c-7.98,-10.88 -30.76,-16.78 -44.78,-4.96c-14.02,11.82 -13.99,36.92 -6.01,47.8c8.01,10.88 25.86,10.11 39.87,-1.74z" fill="#63C8D3" id="svg_119"/>
       <path d="m1036.02,318.29c7.96,7.02 19.75,5.79 26.28,-2.73c6.56,-8.55 5.41,-21.15 -2.55,-28.18c-7.98,-7.02 -27.81,-12.87 -34.37,-4.32c-6.53,8.53 2.65,28.23 10.64,35.23z" fill="#63C8D3" id="svg_120"/>
       <path d="m1373.03,231.21c13.74,0.51 25.18,-8.04 25.53,-19.09c0.35,-11.05 -10.16,-31.55 -23.9,-32.04c-13.74,-0.51 -25.51,19.17 -25.86,30.21c-0.35,11.05 10.49,20.4 24.23,20.91z" fill="#63C8D3" id="svg_121"/>
       <path d="m1621,422.76c31.84,-9.03 -21.35,-108.58 -41.02,-47.26c-3.55,11.07 9.16,56.27 41.02,47.26z" fill="#63C8D3" id="svg_122"/>
       <path d="m1697.49,570.26c-3.45,-12.57 -24.25,-17.1 -34.17,-13.99c-9.89,3.11 -15.14,15.79 -11.69,28.36c3.43,12.57 14.24,20.27 24.13,17.16c9.91,-3.11 25.16,-18.95 21.73,-31.53z" fill="#63C8D3" id="svg_123"/>
       <path d="m1587.81,488.74c-30.84,-4.85 -45.43,-41.53 -61.12,-109.81c-15.69,-68.26 -77.92,-50.37 -111.83,-65.15c-33.94,-14.77 -46.51,-71.66 -84.33,-70.03c-37.82,1.61 -61.45,53.08 -89.06,26.38c-27.63,-26.7 -35.02,-112.57 -82.12,-85.57c-47.08,27.02 -13.72,86.7 -6.33,122.28c7.38,35.6 -9.51,50.96 -35.37,28.2c-25.83,-22.76 -46.53,4.16 -35.42,33.03c11.09,28.87 12.59,58.34 -7.93,64.53c-20.52,6.22 -56.22,-23.51 -71.59,10.29c-15.39,33.81 16.09,44.07 42.8,57.75c26.73,13.67 20.22,46.27 26.11,85.52c1.9,12.76 6.06,22.92 11.44,30.8c-5.38,-52.63 7.56,-107.45 40.3,-152.54c66.81,-92.04 190.63,-108.6 276.53,-37.05c84.03,70 100.65,198.36 38.82,290.05c37.4,-2.52 81.95,-30.43 95.59,-63.51c28.13,-68.23 -24.33,-92.65 -7.13,-105.31c17.2,-12.65 76.27,46.35 102.67,2.12c26.41,-44.23 -11.19,-57.16 -42.03,-61.98z" fill="#63C8D3" id="svg_124"/>
      </g>
      <g id="svg_125">
       <g id="svg_126">
        <path d="m1140.52,129.55c8.01,10.88 3.1,29.28 -10.91,41.1c-14.02,11.85 -31.86,12.63 -39.87,1.74c-7.98,-10.86 -8.01,-35.98 6.01,-47.8c14.02,-11.82 36.79,-5.92 44.78,4.96z" fill="#FFFFFF" id="svg_127"/>
        <path d="m1026.01,318.29c-7.98,-7 -17.17,-26.7 -10.64,-35.23c6.56,-8.55 26.38,-2.71 34.37,4.32c7.96,7.02 9.11,19.62 2.55,28.15c-6.56,8.55 -18.32,9.79 -26.28,2.76z" fill="#FFFFFF" id="svg_128"/>
        <path d="m1338.79,210.3c0.35,-11.05 12.11,-30.72 25.86,-30.21c13.74,0.48 24.25,20.99 23.9,32.04c-0.38,11.05 -11.79,19.6 -25.53,19.09c-13.74,-0.51 -24.58,-9.87 -24.23,-20.91z" fill="#FFFFFF" id="svg_129"/>
        <path d="m1569.97,375.5c-3.55,11.07 9.16,56.27 41.02,47.26c31.84,-9.03 -21.35,-108.58 -41.02,-47.26z" fill="#FFFFFF" id="svg_130"/>
        <path d="m1653.34,556.27c9.89,-3.11 30.69,1.42 34.14,13.99c3.43,12.57 -11.81,28.42 -21.73,31.53c-9.89,3.11 -20.7,-4.56 -24.13,-17.16c-3.43,-12.57 1.8,-25.25 11.71,-28.36z" fill="#FFFFFF" id="svg_131"/>
       </g>
       <g id="svg_132">
        <path d="m1404.84,313.78c-33.94,-14.77 -46.51,-71.63 -84.33,-70.03c-37.82,1.61 -61.45,53.08 -89.06,26.38c-27.63,-26.7 -35.02,-112.57 -82.12,-85.57c-47.08,27.02 -13.72,86.7 -6.33,122.28c7.38,35.6 -9.51,50.96 -35.37,28.2c-25.83,-22.76 -46.53,4.16 -35.42,33.03c11.09,28.87 12.59,58.34 -7.93,64.53c-20.52,6.22 -56.22,-23.51 -71.59,10.29c-15.39,33.81 16.09,44.07 42.8,57.75c26.73,13.67 20.22,46.27 26.11,85.52c1.9,12.76 6.06,22.92 11.44,30.83c-5.38,-52.65 7.56,-107.48 40.3,-152.57c66.81,-92.04 190.63,-108.6 276.53,-37.05c84.03,70 100.65,198.36 38.82,290.05c37.4,-2.52 81.95,-30.43 95.59,-63.51c28.13,-68.23 -24.33,-92.65 -7.13,-105.31c17.2,-12.65 76.27,46.38 102.67,2.12c26.41,-44.23 -11.19,-57.13 -42.03,-61.98c-30.84,-4.85 -45.43,-41.53 -61.12,-109.81c-15.69,-68.26 -77.92,-50.37 -111.83,-65.15z" fill="#FFFFFF" id="svg_133"/>
        <g id="svg_134">
         <path d="m1159.22,304.24c0,0 -55.22,-85.52 5.48,-111.31c0,0 -30.09,50.4 -5.48,111.31z" fill="#EBFBFC" id="svg_135"/>
         <path d="m1043.28,489.33c0,0 -54.67,-8.2 -33.34,-55.07c0,0 4.36,42.76 33.34,55.07z" fill="#EBFBFC" id="svg_136"/>
         <path d="m1269.15,284.32c0,0 26.26,-26.94 51.41,-26.94c25.16,0 54.69,55.66 54.69,55.66s-58.52,-36.33 -106.1,-28.71z" fill="#EBFBFC" id="svg_137"/>
         <path d="m1433.78,332.92c0,0 43.75,-3.51 56.32,18.18c12.59,21.66 25.16,82.01 25.16,82.01s-37.75,-92.54 -81.47,-100.19z" fill="#EBFBFC" id="svg_138"/>
         <path d="m1569.39,499.86c0,0 43.2,6.46 43.75,26.94c0.55,20.51 -27.33,28.52 -27.33,28.52s10.89,-41.39 -16.42,-55.47z" fill="#EBFBFC" id="svg_139"/>
        </g>
       </g>
      </g>
     </g>
    </g>
   </g>
  </g>
 </g>
</svg>